<svg width="447" height="191" viewBox="0 0 447 191" fill="none" xmlns="http://www.w3.org/2000/svg">
<g clip-path="url(#clip0)">
<path d="M249.592 310.721C236.921 309.387 223.965 309.315 211.636 306.499C163.19 295.429 123.502 269.675 88.4958 234.604C72.7278 218.804 52.4315 207.503 34.0811 194.31C8.40545 175.851 -20.2966 160.801 -34.2542 129.689C-37.1892 123.148 -43.2567 117.998 -47.9577 112.271C-63.447 93.3906 -62.6824 77.8988 -45.4 60.4759C-37.4679 52.4821 -29.8614 44.1505 -21.552 36.5637C-18.9918 34.223 -14.6459 33.8506 -11.7775 30.6639C0.722484 26.471 12.956 20.9659 25.7766 18.3638C54.3331 12.5701 83.2448 8.49801 111.905 3.23462C149.641 -3.68623 184.867 6.3892 219.003 20.1199C246.839 31.3176 272.608 48.2374 300.985 57.3459C328.424 66.161 350.531 82.0745 371.111 99.8428C389.765 115.944 404.682 136.474 420.61 155.584C425.947 161.997 429.092 170.173 433.638 177.289C446.295 197.107 440.697 215.835 431.351 234.915C423.367 251.213 411.923 264.537 395.871 271.964C387.15 275.999 375.432 273.032 365.894 275.937C346.589 281.815 328.027 290.097 308.816 296.335C293.147 301.423 277.033 305.214 260.984 309.024C257.531 309.843 253.511 308.284 249.752 307.833L249.592 310.721Z" fill="white" fill-opacity="0.05"/>
</g>
<defs>
<clipPath id="clip0">
<rect width="447" height="191" fill="white"/>
</clipPath>
</defs>
</svg>
