<svg width="570" height="211" viewBox="0 0 570 211" fill="none" xmlns="http://www.w3.org/2000/svg">
<g clip-path="url(#clip0)">
<path d="M537.564 -874.416C538.134 -884.295 543.71 -888.918 552.779 -891.181C568.304 -864.799 577.442 -835.151 579.464 -804.606C583.688 -761.521 589.377 -718.527 591.977 -675.345C593.955 -642.509 592.284 -609.446 591.863 -576.491C591.657 -560.825 590.968 -545.171 589.793 -529.529C588.487 -509.176 591.434 -488.773 598.447 -469.621C602.546 -457.889 600.471 -445.81 603.184 -434.038C613.36 -389.185 617.507 -343.174 615.514 -297.224C614.728 -277.123 611.193 -257.114 608.497 -237.116C607.465 -229.483 604.336 -222.295 609.466 -214.616C610.428 -212.442 610.812 -210.057 610.581 -207.691C610.35 -205.325 609.513 -203.059 608.149 -201.111C605.003 -194.607 601.115 -188.148 606.399 -180.589C607.431 -179.107 606.445 -175.168 605.105 -173.264C594.673 -158.385 595.152 -140.525 591.504 -123.891C579.374 -68.6674 557.938 -15.91 528.113 32.1234C510.306 62.8055 486.236 89.3927 457.471 110.153C444.034 119.411 436.156 134.438 425.912 146.888C410.122 166.076 387.975 177.996 371.996 196.74C370.574 198.314 368.835 199.57 366.894 200.424C364.953 201.279 362.853 201.714 360.731 201.699C348.687 201.705 336.8 204.434 325.958 209.68C324.156 210.569 321.295 211.47 319.898 210.672C297.535 197.88 273.552 217.325 250.835 206.972C244.998 204.31 237.53 205.12 231.453 201.54C227.221 199.373 222.304 198.963 217.772 200.4C202.267 204.42 185.846 202.899 171.344 196.098C156.843 189.297 145.173 177.643 138.351 163.152C116.668 119.037 99.5784 72.8086 87.3531 25.1971C82.3024 4.9372 75.5586 -14.8723 73.5747 -35.7993C73.1355 -40.0195 71.2123 -43.9467 68.1478 -46.8813C48.6061 -66.4058 42.5805 -92.1784 36.4353 -117.478C26.7946 -159.816 22.0926 -203.13 22.4232 -246.551C22.1667 -278.902 17.1273 -311.201 16.563 -343.564C14.5334 -411.019 17.9937 -478.528 26.9096 -545.422C37.0425 -612.148 52.6464 -677.926 73.5633 -742.093C81.0311 -765.466 94.5587 -785.948 105.487 -807.685C120.878 -838.274 136.777 -868.681 149.849 -900.279C158.651 -921.548 173.067 -938.513 185.415 -957.092C194.428 -970.648 207.305 -980.384 219.835 -990.805C231.84 -1000.33 242.715 -1011.2 252.249 -1023.2C264.748 -1038.15 280.828 -1049.71 298.994 -1056.78C317.521 -1064.92 336.55 -1072.1 358.634 -1072C387.643 -1072.08 416.253 -1065.23 442.079 -1052.02C449.618 -1048.42 457.434 -1045.43 465.452 -1043.09C473.324 -1040.57 481.214 -1037.5 481.852 -1026.71C482.172 -1021.35 487.49 -1018.25 490.791 -1014.23C501.622 -1001.05 512.955 -988.685 518.479 -971.417C526.155 -950.276 531.981 -928.507 535.888 -906.356C536.165 -903.822 535.708 -901.262 534.572 -898.98C530.125 -887.978 530.228 -887.693 537.564 -874.416Z" fill="white" fill-opacity="0.05"/>
</g>
<defs>
<clipPath id="clip0">
<rect width="570" height="211" fill="white"/>
</clipPath>
</defs>
</svg>
