<svg width="644" height="72" xmlns="http://www.w3.org/2000/svg" xmlns:xlink="http://www.w3.org/1999/xlink" overflow="hidden"><defs><clipPath id="clip0"><rect x="0" y="0" width="644" height="72"/></clipPath><clipPath id="clip1"><rect x="0" y="0" width="643" height="71"/></clipPath><clipPath id="clip2"><rect x="0" y="0" width="643" height="72"/></clipPath><clipPath id="clip3"><rect x="0" y="0" width="643" height="72"/></clipPath><clipPath id="clip4"><rect x="55" y="33" width="6" height="5"/></clipPath><clipPath id="clip5"><rect x="155" y="33" width="6" height="5"/></clipPath><clipPath id="clip6"><rect x="256" y="33" width="6" height="5"/></clipPath><clipPath id="clip7"><rect x="357" y="33" width="6" height="5"/></clipPath><clipPath id="clip8"><rect x="458" y="33" width="7" height="5"/></clipPath><clipPath id="clip9"><rect x="580" y="33" width="7" height="5"/></clipPath></defs><g clip-path="url(#clip0)"><g clip-path="url(#clip1)"><g clip-path="url(#clip2)"><g clip-path="url(#clip3)"><path d="M0 0 633.789 0 633.789 71 0 71Z" fill="#FFFFFF" fill-rule="nonzero" fill-opacity="1" transform="scale(1.01453 1)"/><path d="M26.4418 32.0396 28.8556 32.0396C31.2694 32.0396 36.0971 32.0396 40.9247 32.0396 45.7524 32.0396 50.58 32.0396 52.9939 32.0396L55.4077 32.0396" stroke="#000000" stroke-width="0.651376" stroke-linecap="butt" stroke-linejoin="miter" stroke-miterlimit="4" stroke-opacity="1" fill="none" fill-rule="nonzero" transform="matrix(1.01453 0 0 1 3.25052 3.20396)"/><g clip-path="url(#clip4)"><path d="M0 0 3.90826 1.95413 0 3.90826 1.5633 1.95413Z" fill="#000000" fill-rule="nonzero" fill-opacity="1" transform="matrix(1.01453 0 0 1 55.8949 33.2894)"/></g><path d="M120.545 32.0396 123.341 32.0396C126.136 32.0396 131.727 32.0396 137.318 32.0396 142.909 32.0396 148.5 32.0396 151.296 32.0396L154.091 32.0396" stroke="#000000" stroke-width="0.651376" stroke-linecap="butt" stroke-linejoin="miter" stroke-miterlimit="4" stroke-opacity="1" fill="none" fill-rule="nonzero" transform="matrix(1.01453 0 0 1 3.25052 3.20396)"/><g clip-path="url(#clip5)"><path d="M0 0 3.90826 1.95413 0 3.90826 1.5633 1.95413Z" fill="#000000" fill-rule="nonzero" fill-opacity="1" transform="matrix(1.01453 0 0 1 156.012 33.2894)"/></g><path d="M219.228 32.0396 222.1 32.0396C224.971 32.0396 230.713 32.0396 236.455 32.0396 242.197 32.0396 247.939 32.0396 250.81 32.0396L253.68 32.0396" stroke="#000000" stroke-width="0.651376" stroke-linecap="butt" stroke-linejoin="miter" stroke-miterlimit="4" stroke-opacity="1" fill="none" fill-rule="nonzero" transform="matrix(1.01453 0 0 1 3.25052 3.20396)"/><g clip-path="url(#clip6)"><path d="M0 0 3.90826 1.95413 0 3.90826 1.5633 1.95413Z" fill="#000000" fill-rule="nonzero" fill-opacity="1" transform="matrix(1.01453 0 0 1 257.049 33.2894)"/></g><path d="M318.818 32.0396 321.702 32.0396C324.585 32.0396 330.353 32.0396 336.12 32.0396 341.888 32.0396 347.655 32.0396 350.539 32.0396L353.422 32.0396" stroke="#000000" stroke-width="0.651376" stroke-linecap="butt" stroke-linejoin="miter" stroke-miterlimit="4" stroke-opacity="1" fill="none" fill-rule="nonzero" transform="matrix(1.01453 0 0 1 3.25052 3.20396)"/><g clip-path="url(#clip7)"><path d="M0 0 3.90826 1.95413 0 3.90826 1.5633 1.95413Z" fill="#000000" fill-rule="nonzero" fill-opacity="1" transform="matrix(1.01453 0 0 1 358.241 33.2894)"/></g><path d="M418.56 32.0396 421.453 32.0396C424.346 32.0396 430.132 32.0396 435.918 32.0396 441.704 32.0396 447.49 32.0396 450.384 32.0396L453.276 32.0396" stroke="#000000" stroke-width="0.651376" stroke-linecap="butt" stroke-linejoin="miter" stroke-miterlimit="4" stroke-opacity="1" fill="none" fill-rule="nonzero" transform="matrix(1.01453 0 0 1 3.25052 3.20396)"/><g clip-path="url(#clip8)"><path d="M0 0 3.90826 1.95413 0 3.90826 1.5633 1.95413Z" fill="#000000" fill-rule="nonzero" fill-opacity="1" transform="matrix(1.01453 0 0 1 459.546 33.2894)"/></g><path d="M519.422 32.0396 523.927 32.0396C528.432 32.0396 537.443 32.0396 546.454 32.0396 555.464 32.0396 564.475 32.0396 568.98 32.0396L573.486 32.0396" stroke="#000000" stroke-width="0.651376" stroke-linecap="butt" stroke-linejoin="miter" stroke-miterlimit="4" stroke-opacity="1" fill="none" fill-rule="nonzero" transform="matrix(1.01453 0 0 1 3.25052 3.20396)"/><g clip-path="url(#clip9)"><path d="M0 0 3.90826 1.95413 0 3.90826 1.5633 1.95413Z" fill="#000000" fill-rule="nonzero" fill-opacity="1" transform="matrix(1.01453 0 0 1 581.502 33.2894)"/></g><text fill="#000000" fill-opacity="1" font-family="Segoe UI,Segoe UI_MSFontService,sans-serif" font-style="normal" font-variant="normal" font-weight="400" font-stretch="normal" font-size="10" text-anchor="start" direction="ltr" writing-mode="lr-tb" unicode-bidi="normal" text-decoration="none" transform="matrix(0.660843 0 0 0.651376 37.3458 48)">input<tspan fill="#000000" fill-opacity="1" font-family="Segoe UI,Segoe UI_MSFontService,sans-serif" font-style="normal" font-variant="normal" font-weight="400" font-stretch="normal" font-size="10" text-anchor="start" direction="ltr" writing-mode="lr-tb" unicode-bidi="normal" text-decoration="none" x="144.469" y="0">Layer1</tspan><tspan fill="#000000" fill-opacity="1" font-family="Segoe UI,Segoe UI_MSFontService,sans-serif" font-style="normal" font-variant="normal" font-weight="400" font-stretch="normal" font-size="10" text-anchor="start" direction="ltr" writing-mode="lr-tb" unicode-bidi="normal" text-decoration="none" x="295.969" y="0">Layer2</tspan><tspan fill="#000000" fill-opacity="1" font-family="Segoe UI,Segoe UI_MSFontService,sans-serif" font-style="normal" font-variant="normal" font-weight="400" font-stretch="normal" font-size="10" text-anchor="start" direction="ltr" writing-mode="lr-tb" unicode-bidi="normal" text-decoration="none" x="448.86" y="0">Layer3</tspan><tspan fill="#000000" fill-opacity="1" font-family="Segoe UI,Segoe UI_MSFontService,sans-serif" font-style="normal" font-variant="normal" font-weight="400" font-stretch="normal" font-size="10" text-anchor="start" direction="ltr" writing-mode="lr-tb" unicode-bidi="normal" text-decoration="none" x="601.985" y="0">Layer4</tspan><tspan fill="#000000" fill-opacity="1" font-family="Segoe UI,Segoe UI_MSFontService,sans-serif" font-style="normal" font-variant="normal" font-weight="400" font-stretch="normal" font-size="10" text-anchor="start" direction="ltr" writing-mode="lr-tb" unicode-bidi="normal" text-decoration="none" x="756.828" y="0">Output_layer</tspan></text><path d="M3.25688 0 61.8807 0C63.6794 -5.78538e-16 65.1376 1.45816 65.1376 3.25688L65.1376 13.6586 0 13.6586 0 3.25688C-5.78538e-16 1.45816 1.45816 0 3.25688 0Z" fill="#335588" fill-rule="nonzero" fill-opacity="1" transform="matrix(1.01453 0 0 1 59.4638 3.20396)"/><text fill="#FFFFFF" fill-opacity="1" font-family="Segoe UI,Segoe UI_MSFontService,sans-serif" font-style="normal" font-variant="normal" font-weight="400" font-stretch="normal" font-size="11" text-anchor="start" direction="ltr" writing-mode="lr-tb" unicode-bidi="normal" text-decoration="none" transform="matrix(0.660843 0 0 0.651376 63.4288 13)">Layer1</text><path d="M0 0 65.1376 0 65.1376 36.762 0 36.762 0 0Z" fill="#FFFFFF" fill-rule="nonzero" fill-opacity="1" transform="matrix(1.01453 0 0 1 59.4638 16.8625)"/><text fill="#000000" fill-opacity="1" font-family="Segoe UI,Segoe UI_MSFontService,sans-serif" font-style="normal" font-variant="normal" font-weight="700" font-stretch="normal" font-size="9" text-anchor="start" direction="ltr" writing-mode="lr-tb" unicode-bidi="normal" text-decoration="none" transform="matrix(0.660843 0 0 0.651376 63.4288 25)">kernel<tspan fill="#000000" fill-opacity="1" font-family="Microsoft YaHei,Microsoft YaHei_MSFontService,sans-serif" font-style="normal" font-variant="normal" font-weight="400" font-stretch="normal" font-size="9" text-anchor="start" direction="ltr" writing-mode="lr-tb" unicode-bidi="normal" text-decoration="none" x="26" y="0">〈</tspan><tspan fill="#000000" fill-opacity="1" font-family="Segoe UI,Segoe UI_MSFontService,sans-serif" font-style="normal" font-variant="normal" font-weight="400" font-stretch="normal" font-size="9" text-anchor="start" direction="ltr" writing-mode="lr-tb" unicode-bidi="normal" text-decoration="none" x="35" y="0">9×9</tspan><tspan fill="#000000" fill-opacity="1" font-family="Microsoft YaHei,Microsoft YaHei_MSFontService,sans-serif" font-style="normal" font-variant="normal" font-weight="400" font-stretch="normal" font-size="9" text-anchor="start" direction="ltr" writing-mode="lr-tb" unicode-bidi="normal" text-decoration="none" x="51" y="0">〉</tspan><tspan fill="#000000" fill-opacity="1" font-family="Segoe UI,Segoe UI_MSFontService,sans-serif" font-style="normal" font-variant="normal" font-weight="700" font-stretch="normal" font-size="9" text-anchor="start" direction="ltr" writing-mode="lr-tb" unicode-bidi="normal" text-decoration="none" x="0" y="12.2817">bias</tspan><tspan fill="#000000" fill-opacity="1" font-family="Microsoft YaHei,Microsoft YaHei_MSFontService,sans-serif" font-style="normal" font-variant="normal" font-weight="400" font-stretch="normal" font-size="9" text-anchor="start" direction="ltr" writing-mode="lr-tb" unicode-bidi="normal" text-decoration="none" x="17" y="12.2817">〈</tspan><tspan fill="#000000" fill-opacity="1" font-family="Segoe UI,Segoe UI_MSFontService,sans-serif" font-style="normal" font-variant="normal" font-weight="400" font-stretch="normal" font-size="9" text-anchor="start" direction="ltr" writing-mode="lr-tb" unicode-bidi="normal" text-decoration="none" x="26" y="12.2817">9</tspan><tspan fill="#000000" fill-opacity="1" font-family="Microsoft YaHei,Microsoft YaHei_MSFontService,sans-serif" font-style="normal" font-variant="normal" font-weight="400" font-stretch="normal" font-size="9" text-anchor="start" direction="ltr" writing-mode="lr-tb" unicode-bidi="normal" text-decoration="none" x="31" y="12.2817">〉</tspan><tspan fill="#000000" fill-opacity="1" font-family="Segoe UI,Segoe UI_MSFontService,sans-serif" font-style="normal" font-variant="normal" font-weight="400" font-stretch="normal" font-size="9" text-anchor="start" direction="ltr" writing-mode="lr-tb" unicode-bidi="normal" text-decoration="none" x="0" y="26.0986">activation</tspan><tspan fill="#000000" fill-opacity="1" font-family="Segoe UI,Segoe UI_MSFontService,sans-serif" font-style="normal" font-variant="normal" font-weight="400" font-stretch="normal" font-size="9" text-anchor="start" direction="ltr" writing-mode="lr-tb" unicode-bidi="normal" text-decoration="none" x="38" y="26.0986"> = tanh</tspan><tspan fill="#000000" fill-opacity="1" font-family="Segoe UI,Segoe UI_MSFontService,sans-serif" font-style="normal" font-variant="normal" font-weight="400" font-stretch="normal" font-size="9" text-anchor="start" direction="ltr" writing-mode="lr-tb" unicode-bidi="normal" text-decoration="none" x="0" y="38.3803">units</tspan><tspan fill="#000000" fill-opacity="1" font-family="Segoe UI,Segoe UI_MSFontService,sans-serif" font-style="normal" font-variant="normal" font-weight="400" font-stretch="normal" font-size="9" text-anchor="start" direction="ltr" writing-mode="lr-tb" unicode-bidi="normal" text-decoration="none" x="19" y="38.3803"> = 9</tspan></text><path d="M0 0 65.1376 0" stroke="#333333" stroke-width="0.651376" stroke-linecap="butt" stroke-linejoin="miter" stroke-miterlimit="4" stroke-opacity="1" fill="none" fill-rule="nonzero" transform="matrix(1.01453 0 0 1 59.4638 16.8625)"/><path d="M0 0 65.1376 0 65.1376 10.4017C65.1376 12.2004 63.6794 13.6586 61.8807 13.6586L3.25688 13.6586C1.45816 13.6586 0 12.2004 0 10.4017L0 0Z" fill="#4B1B16" fill-rule="nonzero" fill-opacity="1" transform="matrix(1.01453 0 0 1 59.4638 53.6245)"/><text fill="#FFFFFF" fill-opacity="1" font-family="Segoe UI,Segoe UI_MSFontService,sans-serif" font-style="normal" font-variant="normal" font-weight="400" font-stretch="normal" font-size="11" text-anchor="start" direction="ltr" writing-mode="lr-tb" unicode-bidi="normal" text-decoration="none" transform="matrix(0.660843 0 0 0.651376 63.4288 63)">TanH</text><path d="M0 50.4205 65.1376 50.4205" stroke="#333333" stroke-width="0.651376" stroke-linecap="butt" stroke-linejoin="miter" stroke-miterlimit="4" stroke-opacity="1" fill="none" fill-rule="nonzero" transform="matrix(1.01453 0 0 1 59.4638 3.20396)"/><path d="M3.25688 0 61.8807 0C63.6794 -5.78538e-16 65.1376 1.45816 65.1376 3.25688L65.1376 60.8222C65.1376 62.621 63.6794 64.0791 61.8807 64.0791L3.25688 64.0791C1.45816 64.0791 0 62.621 0 60.8222L0 3.25688C-5.78538e-16 1.45816 1.45816 0 3.25688 0Z" stroke="#333333" stroke-width="0.651376" stroke-linecap="butt" stroke-linejoin="miter" stroke-miterlimit="4" stroke-opacity="1" fill="none" fill-rule="nonzero" transform="matrix(1.01453 0 0 1 59.4638 3.20396)"/><path d="M3.25688 0 61.8807 0C63.6794 -5.78538e-16 65.1376 1.45816 65.1376 3.25688L65.1376 13.6586 0 13.6586 0 3.25688C-5.78538e-16 1.45816 1.45816 0 3.25688 0Z" fill="#335588" fill-rule="nonzero" fill-opacity="1" transform="matrix(1.01453 0 0 1 159.581 3.20396)"/><text fill="#FFFFFF" fill-opacity="1" font-family="Segoe UI,Segoe UI_MSFontService,sans-serif" font-style="normal" font-variant="normal" font-weight="400" font-stretch="normal" font-size="11" text-anchor="start" direction="ltr" writing-mode="lr-tb" unicode-bidi="normal" text-decoration="none" transform="matrix(0.660843 0 0 0.651376 163.547 13)">Layer2</text><path d="M0 0 65.1376 0 65.1376 36.762 0 36.762 0 0Z" fill="#FFFFFF" fill-rule="nonzero" fill-opacity="1" transform="matrix(1.01453 0 0 1 159.581 16.8625)"/><text fill="#000000" fill-opacity="1" font-family="Segoe UI,Segoe UI_MSFontService,sans-serif" font-style="normal" font-variant="normal" font-weight="700" font-stretch="normal" font-size="9" text-anchor="start" direction="ltr" writing-mode="lr-tb" unicode-bidi="normal" text-decoration="none" transform="matrix(0.660843 0 0 0.651376 163.547 25)">kernel<tspan fill="#000000" fill-opacity="1" font-family="Microsoft YaHei,Microsoft YaHei_MSFontService,sans-serif" font-style="normal" font-variant="normal" font-weight="400" font-stretch="normal" font-size="9" text-anchor="start" direction="ltr" writing-mode="lr-tb" unicode-bidi="normal" text-decoration="none" x="26" y="0">〈</tspan><tspan fill="#000000" fill-opacity="1" font-family="Segoe UI,Segoe UI_MSFontService,sans-serif" font-style="normal" font-variant="normal" font-weight="400" font-stretch="normal" font-size="9" text-anchor="start" direction="ltr" writing-mode="lr-tb" unicode-bidi="normal" text-decoration="none" x="35" y="0">9×7</tspan><tspan fill="#000000" fill-opacity="1" font-family="Microsoft YaHei,Microsoft YaHei_MSFontService,sans-serif" font-style="normal" font-variant="normal" font-weight="400" font-stretch="normal" font-size="9" text-anchor="start" direction="ltr" writing-mode="lr-tb" unicode-bidi="normal" text-decoration="none" x="51" y="0">〉</tspan><tspan fill="#000000" fill-opacity="1" font-family="Segoe UI,Segoe UI_MSFontService,sans-serif" font-style="normal" font-variant="normal" font-weight="700" font-stretch="normal" font-size="9" text-anchor="start" direction="ltr" writing-mode="lr-tb" unicode-bidi="normal" text-decoration="none" x="0" y="12.2817">bias</tspan><tspan fill="#000000" fill-opacity="1" font-family="Microsoft YaHei,Microsoft YaHei_MSFontService,sans-serif" font-style="normal" font-variant="normal" font-weight="400" font-stretch="normal" font-size="9" text-anchor="start" direction="ltr" writing-mode="lr-tb" unicode-bidi="normal" text-decoration="none" x="17" y="12.2817">〈</tspan><tspan fill="#000000" fill-opacity="1" font-family="Segoe UI,Segoe UI_MSFontService,sans-serif" font-style="normal" font-variant="normal" font-weight="400" font-stretch="normal" font-size="9" text-anchor="start" direction="ltr" writing-mode="lr-tb" unicode-bidi="normal" text-decoration="none" x="26" y="12.2817">7</tspan><tspan fill="#000000" fill-opacity="1" font-family="Microsoft YaHei,Microsoft YaHei_MSFontService,sans-serif" font-style="normal" font-variant="normal" font-weight="400" font-stretch="normal" font-size="9" text-anchor="start" direction="ltr" writing-mode="lr-tb" unicode-bidi="normal" text-decoration="none" x="31" y="12.2817">〉</tspan><tspan fill="#000000" fill-opacity="1" font-family="Segoe UI,Segoe UI_MSFontService,sans-serif" font-style="normal" font-variant="normal" font-weight="400" font-stretch="normal" font-size="9" text-anchor="start" direction="ltr" writing-mode="lr-tb" unicode-bidi="normal" text-decoration="none" x="0" y="26.0986">activation</tspan><tspan fill="#000000" fill-opacity="1" font-family="Segoe UI,Segoe UI_MSFontService,sans-serif" font-style="normal" font-variant="normal" font-weight="400" font-stretch="normal" font-size="9" text-anchor="start" direction="ltr" writing-mode="lr-tb" unicode-bidi="normal" text-decoration="none" x="38" y="26.0986"> = tanh</tspan><tspan fill="#000000" fill-opacity="1" font-family="Segoe UI,Segoe UI_MSFontService,sans-serif" font-style="normal" font-variant="normal" font-weight="400" font-stretch="normal" font-size="9" text-anchor="start" direction="ltr" writing-mode="lr-tb" unicode-bidi="normal" text-decoration="none" x="0" y="38.3803">units</tspan><tspan fill="#000000" fill-opacity="1" font-family="Segoe UI,Segoe UI_MSFontService,sans-serif" font-style="normal" font-variant="normal" font-weight="400" font-stretch="normal" font-size="9" text-anchor="start" direction="ltr" writing-mode="lr-tb" unicode-bidi="normal" text-decoration="none" x="19" y="38.3803"> = 7</tspan></text><path d="M0 0 65.1376 0" stroke="#333333" stroke-width="0.651376" stroke-linecap="butt" stroke-linejoin="miter" stroke-miterlimit="4" stroke-opacity="1" fill="none" fill-rule="nonzero" transform="matrix(1.01453 0 0 1 159.581 16.8625)"/><path d="M0 0 65.1376 0 65.1376 10.4017C65.1376 12.2004 63.6794 13.6586 61.8807 13.6586L3.25688 13.6586C1.45816 13.6586 0 12.2004 0 10.4017L0 0Z" fill="#4B1B16" fill-rule="nonzero" fill-opacity="1" transform="matrix(1.01453 0 0 1 159.581 53.6245)"/><text fill="#FFFFFF" fill-opacity="1" font-family="Segoe UI,Segoe UI_MSFontService,sans-serif" font-style="normal" font-variant="normal" font-weight="400" font-stretch="normal" font-size="11" text-anchor="start" direction="ltr" writing-mode="lr-tb" unicode-bidi="normal" text-decoration="none" transform="matrix(0.660843 0 0 0.651376 163.547 63)">TanH</text><path d="M0 50.4205 65.1376 50.4205" stroke="#333333" stroke-width="0.651376" stroke-linecap="butt" stroke-linejoin="miter" stroke-miterlimit="4" stroke-opacity="1" fill="none" fill-rule="nonzero" transform="matrix(1.01453 0 0 1 159.581 3.20396)"/><path d="M3.25688 0 61.8807 0C63.6794 -5.78538e-16 65.1376 1.45816 65.1376 3.25688L65.1376 60.8222C65.1376 62.621 63.6794 64.0791 61.8807 64.0791L3.25688 64.0791C1.45816 64.0791 0 62.621 0 60.8222L0 3.25688C-5.78538e-16 1.45816 1.45816 0 3.25688 0Z" stroke="#333333" stroke-width="0.651376" stroke-linecap="butt" stroke-linejoin="miter" stroke-miterlimit="4" stroke-opacity="1" fill="none" fill-rule="nonzero" transform="matrix(1.01453 0 0 1 159.581 3.20396)"/><path d="M3.25688 0 61.8807 0C63.6794 -5.78538e-16 65.1376 1.45816 65.1376 3.25688L65.1376 13.6586 0 13.6586 0 3.25688C-5.78538e-16 1.45816 1.45816 0 3.25688 0Z" fill="#335588" fill-rule="nonzero" fill-opacity="1" transform="matrix(1.01453 0 0 1 260.618 3.20396)"/><text fill="#FFFFFF" fill-opacity="1" font-family="Segoe UI,Segoe UI_MSFontService,sans-serif" font-style="normal" font-variant="normal" font-weight="400" font-stretch="normal" font-size="11" text-anchor="start" direction="ltr" writing-mode="lr-tb" unicode-bidi="normal" text-decoration="none" transform="matrix(0.660843 0 0 0.651376 264.583 13)">Layer3</text><path d="M0 0 65.1376 0 65.1376 36.762 0 36.762 0 0Z" fill="#FFFFFF" fill-rule="nonzero" fill-opacity="1" transform="matrix(1.01453 0 0 1 260.618 16.8625)"/><text fill="#000000" fill-opacity="1" font-family="Segoe UI,Segoe UI_MSFontService,sans-serif" font-style="normal" font-variant="normal" font-weight="700" font-stretch="normal" font-size="9" text-anchor="start" direction="ltr" writing-mode="lr-tb" unicode-bidi="normal" text-decoration="none" transform="matrix(0.660843 0 0 0.651376 264.583 25)">kernel<tspan fill="#000000" fill-opacity="1" font-family="Microsoft YaHei,Microsoft YaHei_MSFontService,sans-serif" font-style="normal" font-variant="normal" font-weight="400" font-stretch="normal" font-size="9" text-anchor="start" direction="ltr" writing-mode="lr-tb" unicode-bidi="normal" text-decoration="none" x="26" y="0">〈</tspan><tspan fill="#000000" fill-opacity="1" font-family="Segoe UI,Segoe UI_MSFontService,sans-serif" font-style="normal" font-variant="normal" font-weight="400" font-stretch="normal" font-size="9" text-anchor="start" direction="ltr" writing-mode="lr-tb" unicode-bidi="normal" text-decoration="none" x="35" y="0">7×7</tspan><tspan fill="#000000" fill-opacity="1" font-family="Microsoft YaHei,Microsoft YaHei_MSFontService,sans-serif" font-style="normal" font-variant="normal" font-weight="400" font-stretch="normal" font-size="9" text-anchor="start" direction="ltr" writing-mode="lr-tb" unicode-bidi="normal" text-decoration="none" x="51" y="0">〉</tspan><tspan fill="#000000" fill-opacity="1" font-family="Segoe UI,Segoe UI_MSFontService,sans-serif" font-style="normal" font-variant="normal" font-weight="700" font-stretch="normal" font-size="9" text-anchor="start" direction="ltr" writing-mode="lr-tb" unicode-bidi="normal" text-decoration="none" x="0" y="12.2817">bias</tspan><tspan fill="#000000" fill-opacity="1" font-family="Microsoft YaHei,Microsoft YaHei_MSFontService,sans-serif" font-style="normal" font-variant="normal" font-weight="400" font-stretch="normal" font-size="9" text-anchor="start" direction="ltr" writing-mode="lr-tb" unicode-bidi="normal" text-decoration="none" x="17" y="12.2817">〈</tspan><tspan fill="#000000" fill-opacity="1" font-family="Segoe UI,Segoe UI_MSFontService,sans-serif" font-style="normal" font-variant="normal" font-weight="400" font-stretch="normal" font-size="9" text-anchor="start" direction="ltr" writing-mode="lr-tb" unicode-bidi="normal" text-decoration="none" x="26" y="12.2817">7</tspan><tspan fill="#000000" fill-opacity="1" font-family="Microsoft YaHei,Microsoft YaHei_MSFontService,sans-serif" font-style="normal" font-variant="normal" font-weight="400" font-stretch="normal" font-size="9" text-anchor="start" direction="ltr" writing-mode="lr-tb" unicode-bidi="normal" text-decoration="none" x="31" y="12.2817">〉</tspan><tspan fill="#000000" fill-opacity="1" font-family="Segoe UI,Segoe UI_MSFontService,sans-serif" font-style="normal" font-variant="normal" font-weight="400" font-stretch="normal" font-size="9" text-anchor="start" direction="ltr" writing-mode="lr-tb" unicode-bidi="normal" text-decoration="none" x="0" y="26.0986">activation</tspan><tspan fill="#000000" fill-opacity="1" font-family="Segoe UI,Segoe UI_MSFontService,sans-serif" font-style="normal" font-variant="normal" font-weight="400" font-stretch="normal" font-size="9" text-anchor="start" direction="ltr" writing-mode="lr-tb" unicode-bidi="normal" text-decoration="none" x="38" y="26.0986"> = tanh</tspan><tspan fill="#000000" fill-opacity="1" font-family="Segoe UI,Segoe UI_MSFontService,sans-serif" font-style="normal" font-variant="normal" font-weight="400" font-stretch="normal" font-size="9" text-anchor="start" direction="ltr" writing-mode="lr-tb" unicode-bidi="normal" text-decoration="none" x="0" y="38.3803">units</tspan><tspan fill="#000000" fill-opacity="1" font-family="Segoe UI,Segoe UI_MSFontService,sans-serif" font-style="normal" font-variant="normal" font-weight="400" font-stretch="normal" font-size="9" text-anchor="start" direction="ltr" writing-mode="lr-tb" unicode-bidi="normal" text-decoration="none" x="19" y="38.3803"> = 7</tspan></text><path d="M0 0 65.1376 0" stroke="#333333" stroke-width="0.651376" stroke-linecap="butt" stroke-linejoin="miter" stroke-miterlimit="4" stroke-opacity="1" fill="none" fill-rule="nonzero" transform="matrix(1.01453 0 0 1 260.618 16.8625)"/><path d="M0 0 65.1376 0 65.1376 10.4017C65.1376 12.2004 63.6794 13.6586 61.8807 13.6586L3.25688 13.6586C1.45816 13.6586 0 12.2004 0 10.4017L0 0Z" fill="#4B1B16" fill-rule="nonzero" fill-opacity="1" transform="matrix(1.01453 0 0 1 260.618 53.6245)"/><text fill="#FFFFFF" fill-opacity="1" font-family="Segoe UI,Segoe UI_MSFontService,sans-serif" font-style="normal" font-variant="normal" font-weight="400" font-stretch="normal" font-size="11" text-anchor="start" direction="ltr" writing-mode="lr-tb" unicode-bidi="normal" text-decoration="none" transform="matrix(0.660843 0 0 0.651376 264.583 63)">TanH</text><path d="M0 50.4205 65.1376 50.4205" stroke="#333333" stroke-width="0.651376" stroke-linecap="butt" stroke-linejoin="miter" stroke-miterlimit="4" stroke-opacity="1" fill="none" fill-rule="nonzero" transform="matrix(1.01453 0 0 1 260.618 3.20396)"/><path d="M3.25688 0 61.8807 0C63.6794 -5.78538e-16 65.1376 1.45816 65.1376 3.25688L65.1376 60.8222C65.1376 62.621 63.6794 64.0791 61.8807 64.0791L3.25688 64.0791C1.45816 64.0791 0 62.621 0 60.8222L0 3.25688C-5.78538e-16 1.45816 1.45816 0 3.25688 0Z" stroke="#333333" stroke-width="0.651376" stroke-linecap="butt" stroke-linejoin="miter" stroke-miterlimit="4" stroke-opacity="1" fill="none" fill-rule="nonzero" transform="matrix(1.01453 0 0 1 260.618 3.20396)"/><path d="M3.25688 0 61.8807 0C63.6794 -5.78538e-16 65.1376 1.45816 65.1376 3.25688L65.1376 13.6586 0 13.6586 0 3.25688C-5.78538e-16 1.45816 1.45816 0 3.25688 0Z" fill="#335588" fill-rule="nonzero" fill-opacity="1" transform="matrix(1.01453 0 0 1 361.809 3.20396)"/><text fill="#FFFFFF" fill-opacity="1" font-family="Segoe UI,Segoe UI_MSFontService,sans-serif" font-style="normal" font-variant="normal" font-weight="400" font-stretch="normal" font-size="11" text-anchor="start" direction="ltr" writing-mode="lr-tb" unicode-bidi="normal" text-decoration="none" transform="matrix(0.660843 0 0 0.651376 365.774 13)">Layer4</text><path d="M0 0 65.1376 0 65.1376 36.762 0 36.762 0 0Z" fill="#FFFFFF" fill-rule="nonzero" fill-opacity="1" transform="matrix(1.01453 0 0 1 361.809 16.8625)"/><text fill="#000000" fill-opacity="1" font-family="Segoe UI,Segoe UI_MSFontService,sans-serif" font-style="normal" font-variant="normal" font-weight="700" font-stretch="normal" font-size="9" text-anchor="start" direction="ltr" writing-mode="lr-tb" unicode-bidi="normal" text-decoration="none" transform="matrix(0.660843 0 0 0.651376 365.774 25)">kernel<tspan fill="#000000" fill-opacity="1" font-family="Microsoft YaHei,Microsoft YaHei_MSFontService,sans-serif" font-style="normal" font-variant="normal" font-weight="400" font-stretch="normal" font-size="9" text-anchor="start" direction="ltr" writing-mode="lr-tb" unicode-bidi="normal" text-decoration="none" x="26" y="0">〈</tspan><tspan fill="#000000" fill-opacity="1" font-family="Segoe UI,Segoe UI_MSFontService,sans-serif" font-style="normal" font-variant="normal" font-weight="400" font-stretch="normal" font-size="9" text-anchor="start" direction="ltr" writing-mode="lr-tb" unicode-bidi="normal" text-decoration="none" x="35" y="0">7×7</tspan><tspan fill="#000000" fill-opacity="1" font-family="Microsoft YaHei,Microsoft YaHei_MSFontService,sans-serif" font-style="normal" font-variant="normal" font-weight="400" font-stretch="normal" font-size="9" text-anchor="start" direction="ltr" writing-mode="lr-tb" unicode-bidi="normal" text-decoration="none" x="51" y="0">〉</tspan><tspan fill="#000000" fill-opacity="1" font-family="Segoe UI,Segoe UI_MSFontService,sans-serif" font-style="normal" font-variant="normal" font-weight="700" font-stretch="normal" font-size="9" text-anchor="start" direction="ltr" writing-mode="lr-tb" unicode-bidi="normal" text-decoration="none" x="0" y="12.2817">bias</tspan><tspan fill="#000000" fill-opacity="1" font-family="Microsoft YaHei,Microsoft YaHei_MSFontService,sans-serif" font-style="normal" font-variant="normal" font-weight="400" font-stretch="normal" font-size="9" text-anchor="start" direction="ltr" writing-mode="lr-tb" unicode-bidi="normal" text-decoration="none" x="17" y="12.2817">〈</tspan><tspan fill="#000000" fill-opacity="1" font-family="Segoe UI,Segoe UI_MSFontService,sans-serif" font-style="normal" font-variant="normal" font-weight="400" font-stretch="normal" font-size="9" text-anchor="start" direction="ltr" writing-mode="lr-tb" unicode-bidi="normal" text-decoration="none" x="26" y="12.2817">7</tspan><tspan fill="#000000" fill-opacity="1" font-family="Microsoft YaHei,Microsoft YaHei_MSFontService,sans-serif" font-style="normal" font-variant="normal" font-weight="400" font-stretch="normal" font-size="9" text-anchor="start" direction="ltr" writing-mode="lr-tb" unicode-bidi="normal" text-decoration="none" x="31" y="12.2817">〉</tspan><tspan fill="#000000" fill-opacity="1" font-family="Segoe UI,Segoe UI_MSFontService,sans-serif" font-style="normal" font-variant="normal" font-weight="400" font-stretch="normal" font-size="9" text-anchor="start" direction="ltr" writing-mode="lr-tb" unicode-bidi="normal" text-decoration="none" x="0" y="26.0986">activation</tspan><tspan fill="#000000" fill-opacity="1" font-family="Segoe UI,Segoe UI_MSFontService,sans-serif" font-style="normal" font-variant="normal" font-weight="400" font-stretch="normal" font-size="9" text-anchor="start" direction="ltr" writing-mode="lr-tb" unicode-bidi="normal" text-decoration="none" x="38" y="26.0986"> = tanh</tspan><tspan fill="#000000" fill-opacity="1" font-family="Segoe UI,Segoe UI_MSFontService,sans-serif" font-style="normal" font-variant="normal" font-weight="400" font-stretch="normal" font-size="9" text-anchor="start" direction="ltr" writing-mode="lr-tb" unicode-bidi="normal" text-decoration="none" x="0" y="38.3803">units</tspan><tspan fill="#000000" fill-opacity="1" font-family="Segoe UI,Segoe UI_MSFontService,sans-serif" font-style="normal" font-variant="normal" font-weight="400" font-stretch="normal" font-size="9" text-anchor="start" direction="ltr" writing-mode="lr-tb" unicode-bidi="normal" text-decoration="none" x="19" y="38.3803"> = 7</tspan></text><path d="M0 0 65.1376 0" stroke="#333333" stroke-width="0.651376" stroke-linecap="butt" stroke-linejoin="miter" stroke-miterlimit="4" stroke-opacity="1" fill="none" fill-rule="nonzero" transform="matrix(1.01453 0 0 1 361.809 16.8625)"/><path d="M0 0 65.1376 0 65.1376 10.4017C65.1376 12.2004 63.6794 13.6586 61.8807 13.6586L3.25688 13.6586C1.45816 13.6586 0 12.2004 0 10.4017L0 0Z" fill="#4B1B16" fill-rule="nonzero" fill-opacity="1" transform="matrix(1.01453 0 0 1 361.809 53.6245)"/><text fill="#FFFFFF" fill-opacity="1" font-family="Segoe UI,Segoe UI_MSFontService,sans-serif" font-style="normal" font-variant="normal" font-weight="400" font-stretch="normal" font-size="11" text-anchor="start" direction="ltr" writing-mode="lr-tb" unicode-bidi="normal" text-decoration="none" transform="matrix(0.660843 0 0 0.651376 365.774 63)">TanH</text><path d="M0 50.4205 65.1376 50.4205" stroke="#333333" stroke-width="0.651376" stroke-linecap="butt" stroke-linejoin="miter" stroke-miterlimit="4" stroke-opacity="1" fill="none" fill-rule="nonzero" transform="matrix(1.01453 0 0 1 361.809 3.20396)"/><path d="M3.25688 0 61.8807 0C63.6794 -5.78538e-16 65.1376 1.45816 65.1376 3.25688L65.1376 60.8222C65.1376 62.621 63.6794 64.0791 61.8807 64.0791L3.25688 64.0791C1.45816 64.0791 0 62.621 0 60.8222L0 3.25688C-5.78538e-16 1.45816 1.45816 0 3.25688 0Z" stroke="#333333" stroke-width="0.651376" stroke-linecap="butt" stroke-linejoin="miter" stroke-miterlimit="4" stroke-opacity="1" fill="none" fill-rule="nonzero" transform="matrix(1.01453 0 0 1 361.809 3.20396)"/><path d="M3.25688 0 62.8883 0C64.687 -5.78538e-16 66.1453 1.45816 66.1453 3.25688L66.1453 13.6586 0 13.6586 0 3.25688C-5.78538e-16 1.45816 1.45816 0 3.25688 0Z" fill="#335588" fill-rule="nonzero" fill-opacity="1" transform="matrix(1.01453 0 0 1 463.114 3.20396)"/><text fill="#FFFFFF" fill-opacity="1" font-family="Segoe UI,Segoe UI_MSFontService,sans-serif" font-style="normal" font-variant="normal" font-weight="400" font-stretch="normal" font-size="11" text-anchor="start" direction="ltr" writing-mode="lr-tb" unicode-bidi="normal" text-decoration="none" transform="matrix(0.660843 0 0 0.651376 467.079 13)">Output_layer</text><path d="M0 0 66.1453 0 66.1453 36.762 0 36.762 0 0Z" fill="#FFFFFF" fill-rule="nonzero" fill-opacity="1" transform="matrix(1.01453 0 0 1 463.114 16.8625)"/><text fill="#000000" fill-opacity="1" font-family="Segoe UI,Segoe UI_MSFontService,sans-serif" font-style="normal" font-variant="normal" font-weight="700" font-stretch="normal" font-size="9" text-anchor="start" direction="ltr" writing-mode="lr-tb" unicode-bidi="normal" text-decoration="none" transform="matrix(0.660843 0 0 0.651376 467.079 25)">kernel<tspan fill="#000000" fill-opacity="1" font-family="Microsoft YaHei,Microsoft YaHei_MSFontService,sans-serif" font-style="normal" font-variant="normal" font-weight="400" font-stretch="normal" font-size="9" text-anchor="start" direction="ltr" writing-mode="lr-tb" unicode-bidi="normal" text-decoration="none" x="26" y="0">〈</tspan><tspan fill="#000000" fill-opacity="1" font-family="Segoe UI,Segoe UI_MSFontService,sans-serif" font-style="normal" font-variant="normal" font-weight="400" font-stretch="normal" font-size="9" text-anchor="start" direction="ltr" writing-mode="lr-tb" unicode-bidi="normal" text-decoration="none" x="35" y="0">7×2</tspan><tspan fill="#000000" fill-opacity="1" font-family="Microsoft YaHei,Microsoft YaHei_MSFontService,sans-serif" font-style="normal" font-variant="normal" font-weight="400" font-stretch="normal" font-size="9" text-anchor="start" direction="ltr" writing-mode="lr-tb" unicode-bidi="normal" text-decoration="none" x="51" y="0">〉</tspan><tspan fill="#000000" fill-opacity="1" font-family="Segoe UI,Segoe UI_MSFontService,sans-serif" font-style="normal" font-variant="normal" font-weight="700" font-stretch="normal" font-size="9" text-anchor="start" direction="ltr" writing-mode="lr-tb" unicode-bidi="normal" text-decoration="none" x="0" y="12.2817">bias</tspan><tspan fill="#000000" fill-opacity="1" font-family="Microsoft YaHei,Microsoft YaHei_MSFontService,sans-serif" font-style="normal" font-variant="normal" font-weight="400" font-stretch="normal" font-size="9" text-anchor="start" direction="ltr" writing-mode="lr-tb" unicode-bidi="normal" text-decoration="none" x="17" y="12.2817">〈</tspan><tspan fill="#000000" fill-opacity="1" font-family="Segoe UI,Segoe UI_MSFontService,sans-serif" font-style="normal" font-variant="normal" font-weight="400" font-stretch="normal" font-size="9" text-anchor="start" direction="ltr" writing-mode="lr-tb" unicode-bidi="normal" text-decoration="none" x="26" y="12.2817">2</tspan><tspan fill="#000000" fill-opacity="1" font-family="Microsoft YaHei,Microsoft YaHei_MSFontService,sans-serif" font-style="normal" font-variant="normal" font-weight="400" font-stretch="normal" font-size="9" text-anchor="start" direction="ltr" writing-mode="lr-tb" unicode-bidi="normal" text-decoration="none" x="31" y="12.2817">〉</tspan><tspan fill="#000000" fill-opacity="1" font-family="Segoe UI,Segoe UI_MSFontService,sans-serif" font-style="normal" font-variant="normal" font-weight="400" font-stretch="normal" font-size="9" text-anchor="start" direction="ltr" writing-mode="lr-tb" unicode-bidi="normal" text-decoration="none" x="0" y="26.0986">activation</tspan><tspan fill="#000000" fill-opacity="1" font-family="Segoe UI,Segoe UI_MSFontService,sans-serif" font-style="normal" font-variant="normal" font-weight="400" font-stretch="normal" font-size="9" text-anchor="start" direction="ltr" writing-mode="lr-tb" unicode-bidi="normal" text-decoration="none" x="38" y="26.0986"> = softmax</tspan><tspan fill="#000000" fill-opacity="1" font-family="Segoe UI,Segoe UI_MSFontService,sans-serif" font-style="normal" font-variant="normal" font-weight="400" font-stretch="normal" font-size="9" text-anchor="start" direction="ltr" writing-mode="lr-tb" unicode-bidi="normal" text-decoration="none" x="0" y="38.3803">units</tspan><tspan fill="#000000" fill-opacity="1" font-family="Segoe UI,Segoe UI_MSFontService,sans-serif" font-style="normal" font-variant="normal" font-weight="400" font-stretch="normal" font-size="9" text-anchor="start" direction="ltr" writing-mode="lr-tb" unicode-bidi="normal" text-decoration="none" x="19" y="38.3803"> = 2</tspan></text><path d="M0 0 66.1453 0" stroke="#333333" stroke-width="0.651376" stroke-linecap="butt" stroke-linejoin="miter" stroke-miterlimit="4" stroke-opacity="1" fill="none" fill-rule="nonzero" transform="matrix(1.01453 0 0 1 463.114 16.8625)"/><path d="M0 0 66.1453 0 66.1453 10.4017C66.1453 12.2004 64.687 13.6586 62.8883 13.6586L3.25688 13.6586C1.45816 13.6586 0 12.2004 0 10.4017L0 0Z" fill="#4B1B16" fill-rule="nonzero" fill-opacity="1" transform="matrix(1.01453 0 0 1 463.114 53.6245)"/><text fill="#FFFFFF" fill-opacity="1" font-family="Segoe UI,Segoe UI_MSFontService,sans-serif" font-style="normal" font-variant="normal" font-weight="400" font-stretch="normal" font-size="11" text-anchor="start" direction="ltr" writing-mode="lr-tb" unicode-bidi="normal" text-decoration="none" transform="matrix(0.660843 0 0 0.651376 467.079 63)">Softmax</text><path d="M0 50.4205 66.1453 50.4205" stroke="#333333" stroke-width="0.651376" stroke-linecap="butt" stroke-linejoin="miter" stroke-miterlimit="4" stroke-opacity="1" fill="none" fill-rule="nonzero" transform="matrix(1.01453 0 0 1 463.114 3.20396)"/><path d="M3.25688 0 62.8883 0C64.687 -5.78538e-16 66.1453 1.45816 66.1453 3.25688L66.1453 60.8222C66.1453 62.621 64.687 64.0791 62.8883 64.0791L3.25688 64.0791C1.45816 64.0791 0 62.621 0 60.8222L0 3.25688C-5.78538e-16 1.45816 1.45816 0 3.25688 0Z" stroke="#333333" stroke-width="0.651376" stroke-linecap="butt" stroke-linejoin="miter" stroke-miterlimit="4" stroke-opacity="1" fill="none" fill-rule="nonzero" transform="matrix(1.01453 0 0 1 463.114 3.20396)"/><path d="M3.25688 0 23.185 0C24.9837 -5.78538e-16 26.4418 1.45816 26.4418 3.25688L26.4418 10.4017C26.4418 12.2004 24.9837 13.6586 23.185 13.6586L3.25688 13.6586C1.45816 13.6586 0 12.2004 0 10.4017L0 3.25688C-5.78538e-16 1.45816 1.45816 0 3.25688 0Z" fill="#EEEEEE" fill-rule="nonzero" fill-opacity="1" transform="matrix(1.01453 0 0 1 3.25052 28.4142)"/><text fill="#000000" fill-opacity="1" font-family="Segoe UI,Segoe UI_MSFontService,sans-serif" font-style="normal" font-variant="normal" font-weight="400" font-stretch="normal" font-size="11" text-anchor="start" direction="ltr" writing-mode="lr-tb" unicode-bidi="normal" text-decoration="none" transform="matrix(0.660843 0 0 0.651376 7.21558 38)">input</text><path d="M3.25688 0 23.185 0C24.9837 -5.78538e-16 26.4418 1.45816 26.4418 3.25688L26.4418 10.4017C26.4418 12.2004 24.9837 13.6586 23.185 13.6586L3.25688 13.6586C1.45816 13.6586 0 12.2004 0 10.4017L0 3.25688C-5.78538e-16 1.45816 1.45816 0 3.25688 0Z" stroke="#333333" stroke-width="0.651376" stroke-linecap="butt" stroke-linejoin="miter" stroke-miterlimit="4" stroke-opacity="1" fill="none" fill-rule="nonzero" transform="matrix(1.01453 0 0 1 3.25052 28.4142)"/><path d="M3.25688 0 50.502 0C52.3008 -5.78538e-16 53.7589 1.45816 53.7589 3.25688L53.7589 10.4017C53.7589 12.2004 52.3008 13.6586 50.502 13.6586L3.25688 13.6586C1.45816 13.6586 0 12.2004 0 10.4017L0 3.25688C-5.78538e-16 1.45816 1.45816 0 3.25688 0Z" fill="#EEEEEE" fill-rule="nonzero" fill-opacity="1" transform="matrix(1.01453 0 0 1 585.071 28.4142)"/><text fill="#000000" fill-opacity="1" font-family="Segoe UI,Segoe UI_MSFontService,sans-serif" font-style="normal" font-variant="normal" font-weight="400" font-stretch="normal" font-size="11" text-anchor="start" direction="ltr" writing-mode="lr-tb" unicode-bidi="normal" text-decoration="none" transform="matrix(0.660843 0 0 0.651376 589.036 38)">Output_layer</text><path d="M3.25688 0 50.502 0C52.3008 -5.78538e-16 53.7589 1.45816 53.7589 3.25688L53.7589 10.4017C53.7589 12.2004 52.3008 13.6586 50.502 13.6586L3.25688 13.6586C1.45816 13.6586 0 12.2004 0 10.4017L0 3.25688C-5.78538e-16 1.45816 1.45816 0 3.25688 0Z" stroke="#333333" stroke-width="0.651376" stroke-linecap="butt" stroke-linejoin="miter" stroke-miterlimit="4" stroke-opacity="1" fill="none" fill-rule="nonzero" transform="matrix(1.01453 0 0 1 585.071 28.4142)"/></g></g></g></g></svg>