<svg width="300" height="300" xmlns="http://www.w3.org/2000/svg" xmlns:xlink="http://www.w3.org/1999/xlink" overflow="hidden"><defs><clipPath id="clip0"><rect x="0" y="0" width="300" height="300"/></clipPath></defs><g clip-path="url(#clip0)"><path d="M0 0 300 0 300 300 0 300Z" fill="#FFFFFF" fill-rule="nonzero" fill-opacity="1"/><path d="M12 12 23 12 23 23 12 23Z" fill="#000000" fill-rule="nonzero" fill-opacity="1"/><path d="M23 12 34 12 34 23 23 23Z" fill="#000000" fill-rule="nonzero" fill-opacity="1"/><path d="M34 12 45 12 45 23 34 23Z" fill="#000000" fill-rule="nonzero" fill-opacity="1"/><path d="M45 12 56 12 56 23 45 23Z" fill="#000000" fill-rule="nonzero" fill-opacity="1"/><path d="M56 12 67 12 67 23 56 23Z" fill="#000000" fill-rule="nonzero" fill-opacity="1"/><path d="M67 12 78 12 78 23 67 23Z" fill="#000000" fill-rule="nonzero" fill-opacity="1"/><path d="M78 12 89 12 89 23 78 23Z" fill="#000000" fill-rule="nonzero" fill-opacity="1"/><path d="M100 12 111 12 111 23 100 23Z" fill="#000000" fill-rule="nonzero" fill-opacity="1"/><path d="M144 12 155 12 155 23 144 23Z" fill="#000000" fill-rule="nonzero" fill-opacity="1"/><path d="M188 12 199 12 199 23 188 23Z" fill="#000000" fill-rule="nonzero" fill-opacity="1"/><path d="M210 12 221 12 221 23 210 23Z" fill="#000000" fill-rule="nonzero" fill-opacity="1"/><path d="M221 12 232 12 232 23 221 23Z" fill="#000000" fill-rule="nonzero" fill-opacity="1"/><path d="M232 12 243 12 243 23 232 23Z" fill="#000000" fill-rule="nonzero" fill-opacity="1"/><path d="M243 12 254 12 254 23 243 23Z" fill="#000000" fill-rule="nonzero" fill-opacity="1"/><path d="M254 12 265 12 265 23 254 23Z" fill="#000000" fill-rule="nonzero" fill-opacity="1"/><path d="M265 12 276 12 276 23 265 23Z" fill="#000000" fill-rule="nonzero" fill-opacity="1"/><path d="M276 12 287 12 287 23 276 23Z" fill="#000000" fill-rule="nonzero" fill-opacity="1"/><path d="M12 23 23 23 23 34 12 34Z" fill="#000000" fill-rule="nonzero" fill-opacity="1"/><path d="M78 23 89 23 89 34 78 34Z" fill="#000000" fill-rule="nonzero" fill-opacity="1"/><path d="M111 23 122 23 122 34 111 34Z" fill="#000000" fill-rule="nonzero" fill-opacity="1"/><path d="M122 23 133 23 133 34 122 34Z" fill="#000000" fill-rule="nonzero" fill-opacity="1"/><path d="M133 23 144 23 144 34 133 34Z" fill="#000000" fill-rule="nonzero" fill-opacity="1"/><path d="M144 23 155 23 155 34 144 34Z" fill="#000000" fill-rule="nonzero" fill-opacity="1"/><path d="M210 23 221 23 221 34 210 34Z" fill="#000000" fill-rule="nonzero" fill-opacity="1"/><path d="M276 23 287 23 287 34 276 34Z" fill="#000000" fill-rule="nonzero" fill-opacity="1"/><path d="M12 34 23 34 23 45 12 45Z" fill="#000000" fill-rule="nonzero" fill-opacity="1"/><path d="M34 34 45 34 45 45 34 45Z" fill="#000000" fill-rule="nonzero" fill-opacity="1"/><path d="M45 34 56 34 56 45 45 45Z" fill="#000000" fill-rule="nonzero" fill-opacity="1"/><path d="M56 34 67 34 67 45 56 45Z" fill="#000000" fill-rule="nonzero" fill-opacity="1"/><path d="M78 34 89 34 89 45 78 45Z" fill="#000000" fill-rule="nonzero" fill-opacity="1"/><path d="M100 34 111 34 111 45 100 45Z" fill="#000000" fill-rule="nonzero" fill-opacity="1"/><path d="M111 34 122 34 122 45 111 45Z" fill="#000000" fill-rule="nonzero" fill-opacity="1"/><path d="M122 34 133 34 133 45 122 45Z" fill="#000000" fill-rule="nonzero" fill-opacity="1"/><path d="M133 34 144 34 144 45 133 45Z" fill="#000000" fill-rule="nonzero" fill-opacity="1"/><path d="M144 34 155 34 155 45 144 45Z" fill="#000000" fill-rule="nonzero" fill-opacity="1"/><path d="M155 34 166 34 166 45 155 45Z" fill="#000000" fill-rule="nonzero" fill-opacity="1"/><path d="M177 34 188 34 188 45 177 45Z" fill="#000000" fill-rule="nonzero" fill-opacity="1"/><path d="M210 34 221 34 221 45 210 45Z" fill="#000000" fill-rule="nonzero" fill-opacity="1"/><path d="M232 34 243 34 243 45 232 45Z" fill="#000000" fill-rule="nonzero" fill-opacity="1"/><path d="M243 34 254 34 254 45 243 45Z" fill="#000000" fill-rule="nonzero" fill-opacity="1"/><path d="M254 34 265 34 265 45 254 45Z" fill="#000000" fill-rule="nonzero" fill-opacity="1"/><path d="M276 34 287 34 287 45 276 45Z" fill="#000000" fill-rule="nonzero" fill-opacity="1"/><path d="M12 45 23 45 23 56 12 56Z" fill="#000000" fill-rule="nonzero" fill-opacity="1"/><path d="M34 45 45 45 45 56 34 56Z" fill="#000000" fill-rule="nonzero" fill-opacity="1"/><path d="M45 45 56 45 56 56 45 56Z" fill="#000000" fill-rule="nonzero" fill-opacity="1"/><path d="M56 45 67 45 67 56 56 56Z" fill="#000000" fill-rule="nonzero" fill-opacity="1"/><path d="M78 45 89 45 89 56 78 56Z" fill="#000000" fill-rule="nonzero" fill-opacity="1"/><path d="M100 45 111 45 111 56 100 56Z" fill="#000000" fill-rule="nonzero" fill-opacity="1"/><path d="M111 45 122 45 122 56 111 56Z" fill="#000000" fill-rule="nonzero" fill-opacity="1"/><path d="M122 45 133 45 133 56 122 56Z" fill="#000000" fill-rule="nonzero" fill-opacity="1"/><path d="M133 45 144 45 144 56 133 56Z" fill="#000000" fill-rule="nonzero" fill-opacity="1"/><path d="M144 45 155 45 155 56 144 56Z" fill="#000000" fill-rule="nonzero" fill-opacity="1"/><path d="M155 45 166 45 166 56 155 56Z" fill="#000000" fill-rule="nonzero" fill-opacity="1"/><path d="M166 45 177 45 177 56 166 56Z" fill="#000000" fill-rule="nonzero" fill-opacity="1"/><path d="M210 45 221 45 221 56 210 56Z" fill="#000000" fill-rule="nonzero" fill-opacity="1"/><path d="M232 45 243 45 243 56 232 56Z" fill="#000000" fill-rule="nonzero" fill-opacity="1"/><path d="M243 45 254 45 254 56 243 56Z" fill="#000000" fill-rule="nonzero" fill-opacity="1"/><path d="M254 45 265 45 265 56 254 56Z" fill="#000000" fill-rule="nonzero" fill-opacity="1"/><path d="M276 45 287 45 287 56 276 56Z" fill="#000000" fill-rule="nonzero" fill-opacity="1"/><path d="M12 56 23 56 23 67 12 67Z" fill="#000000" fill-rule="nonzero" fill-opacity="1"/><path d="M34 56 45 56 45 67 34 67Z" fill="#000000" fill-rule="nonzero" fill-opacity="1"/><path d="M45 56 56 56 56 67 45 67Z" fill="#000000" fill-rule="nonzero" fill-opacity="1"/><path d="M56 56 67 56 67 67 56 67Z" fill="#000000" fill-rule="nonzero" fill-opacity="1"/><path d="M78 56 89 56 89 67 78 67Z" fill="#000000" fill-rule="nonzero" fill-opacity="1"/><path d="M100 56 111 56 111 67 100 67Z" fill="#000000" fill-rule="nonzero" fill-opacity="1"/><path d="M155 56 166 56 166 67 155 67Z" fill="#000000" fill-rule="nonzero" fill-opacity="1"/><path d="M166 56 177 56 177 67 166 67Z" fill="#000000" fill-rule="nonzero" fill-opacity="1"/><path d="M177 56 188 56 188 67 177 67Z" fill="#000000" fill-rule="nonzero" fill-opacity="1"/><path d="M188 56 199 56 199 67 188 67Z" fill="#000000" fill-rule="nonzero" fill-opacity="1"/><path d="M210 56 221 56 221 67 210 67Z" fill="#000000" fill-rule="nonzero" fill-opacity="1"/><path d="M232 56 243 56 243 67 232 67Z" fill="#000000" fill-rule="nonzero" fill-opacity="1"/><path d="M243 56 254 56 254 67 243 67Z" fill="#000000" fill-rule="nonzero" fill-opacity="1"/><path d="M254 56 265 56 265 67 254 67Z" fill="#000000" fill-rule="nonzero" fill-opacity="1"/><path d="M276 56 287 56 287 67 276 67Z" fill="#000000" fill-rule="nonzero" fill-opacity="1"/><path d="M12 67 23 67 23 78 12 78Z" fill="#000000" fill-rule="nonzero" fill-opacity="1"/><path d="M78 67 89 67 89 78 78 78Z" fill="#000000" fill-rule="nonzero" fill-opacity="1"/><path d="M122 67 133 67 133 78 122 78Z" fill="#000000" fill-rule="nonzero" fill-opacity="1"/><path d="M144 67 155 67 155 78 144 78Z" fill="#000000" fill-rule="nonzero" fill-opacity="1"/><path d="M155 67 166 67 166 78 155 78Z" fill="#000000" fill-rule="nonzero" fill-opacity="1"/><path d="M210 67 221 67 221 78 210 78Z" fill="#000000" fill-rule="nonzero" fill-opacity="1"/><path d="M276 67 287 67 287 78 276 78Z" fill="#000000" fill-rule="nonzero" fill-opacity="1"/><path d="M12 78 23 78 23 89 12 89Z" fill="#000000" fill-rule="nonzero" fill-opacity="1"/><path d="M23 78 34 78 34 89 23 89Z" fill="#000000" fill-rule="nonzero" fill-opacity="1"/><path d="M34 78 45 78 45 89 34 89Z" fill="#000000" fill-rule="nonzero" fill-opacity="1"/><path d="M45 78 56 78 56 89 45 89Z" fill="#000000" fill-rule="nonzero" fill-opacity="1"/><path d="M56 78 67 78 67 89 56 89Z" fill="#000000" fill-rule="nonzero" fill-opacity="1"/><path d="M67 78 78 78 78 89 67 89Z" fill="#000000" fill-rule="nonzero" fill-opacity="1"/><path d="M78 78 89 78 89 89 78 89Z" fill="#000000" fill-rule="nonzero" fill-opacity="1"/><path d="M100 78 111 78 111 89 100 89Z" fill="#000000" fill-rule="nonzero" fill-opacity="1"/><path d="M122 78 133 78 133 89 122 89Z" fill="#000000" fill-rule="nonzero" fill-opacity="1"/><path d="M144 78 155 78 155 89 144 89Z" fill="#000000" fill-rule="nonzero" fill-opacity="1"/><path d="M166 78 177 78 177 89 166 89Z" fill="#000000" fill-rule="nonzero" fill-opacity="1"/><path d="M188 78 199 78 199 89 188 89Z" fill="#000000" fill-rule="nonzero" fill-opacity="1"/><path d="M210 78 221 78 221 89 210 89Z" fill="#000000" fill-rule="nonzero" fill-opacity="1"/><path d="M221 78 232 78 232 89 221 89Z" fill="#000000" fill-rule="nonzero" fill-opacity="1"/><path d="M232 78 243 78 243 89 232 89Z" fill="#000000" fill-rule="nonzero" fill-opacity="1"/><path d="M243 78 254 78 254 89 243 89Z" fill="#000000" fill-rule="nonzero" fill-opacity="1"/><path d="M254 78 265 78 265 89 254 89Z" fill="#000000" fill-rule="nonzero" fill-opacity="1"/><path d="M265 78 276 78 276 89 265 89Z" fill="#000000" fill-rule="nonzero" fill-opacity="1"/><path d="M276 78 287 78 287 89 276 89Z" fill="#000000" fill-rule="nonzero" fill-opacity="1"/><path d="M122 89 133 89 133 100 122 100Z" fill="#000000" fill-rule="nonzero" fill-opacity="1"/><path d="M133 89 144 89 144 100 133 100Z" fill="#000000" fill-rule="nonzero" fill-opacity="1"/><path d="M144 89 155 89 155 100 144 100Z" fill="#000000" fill-rule="nonzero" fill-opacity="1"/><path d="M12 100 23 100 23 111 12 111Z" fill="#000000" fill-rule="nonzero" fill-opacity="1"/><path d="M23 100 34 100 34 111 23 111Z" fill="#000000" fill-rule="nonzero" fill-opacity="1"/><path d="M34 100 45 100 45 111 34 111Z" fill="#000000" fill-rule="nonzero" fill-opacity="1"/><path d="M45 100 56 100 56 111 45 111Z" fill="#000000" fill-rule="nonzero" fill-opacity="1"/><path d="M78 100 89 100 89 111 78 111Z" fill="#000000" fill-rule="nonzero" fill-opacity="1"/><path d="M100 100 111 100 111 111 100 111Z" fill="#000000" fill-rule="nonzero" fill-opacity="1"/><path d="M122 100 133 100 133 111 122 111Z" fill="#000000" fill-rule="nonzero" fill-opacity="1"/><path d="M166 100 177 100 177 111 166 111Z" fill="#000000" fill-rule="nonzero" fill-opacity="1"/><path d="M188 100 199 100 199 111 188 111Z" fill="#000000" fill-rule="nonzero" fill-opacity="1"/><path d="M199 100 210 100 210 111 199 111Z" fill="#000000" fill-rule="nonzero" fill-opacity="1"/><path d="M232 100 243 100 243 111 232 111Z" fill="#000000" fill-rule="nonzero" fill-opacity="1"/><path d="M243 100 254 100 254 111 243 111Z" fill="#000000" fill-rule="nonzero" fill-opacity="1"/><path d="M254 100 265 100 265 111 254 111Z" fill="#000000" fill-rule="nonzero" fill-opacity="1"/><path d="M276 100 287 100 287 111 276 111Z" fill="#000000" fill-rule="nonzero" fill-opacity="1"/><path d="M45 111 56 111 56 122 45 122Z" fill="#000000" fill-rule="nonzero" fill-opacity="1"/><path d="M67 111 78 111 78 122 67 122Z" fill="#000000" fill-rule="nonzero" fill-opacity="1"/><path d="M89 111 100 111 100 122 89 122Z" fill="#000000" fill-rule="nonzero" fill-opacity="1"/><path d="M122 111 133 111 133 122 122 122Z" fill="#000000" fill-rule="nonzero" fill-opacity="1"/><path d="M133 111 144 111 144 122 133 122Z" fill="#000000" fill-rule="nonzero" fill-opacity="1"/><path d="M155 111 166 111 166 122 155 122Z" fill="#000000" fill-rule="nonzero" fill-opacity="1"/><path d="M188 111 199 111 199 122 188 122Z" fill="#000000" fill-rule="nonzero" fill-opacity="1"/><path d="M221 111 232 111 232 122 221 122Z" fill="#000000" fill-rule="nonzero" fill-opacity="1"/><path d="M265 111 276 111 276 122 265 122Z" fill="#000000" fill-rule="nonzero" fill-opacity="1"/><path d="M23 122 34 122 34 133 23 133Z" fill="#000000" fill-rule="nonzero" fill-opacity="1"/><path d="M34 122 45 122 45 133 34 133Z" fill="#000000" fill-rule="nonzero" fill-opacity="1"/><path d="M56 122 67 122 67 133 56 133Z" fill="#000000" fill-rule="nonzero" fill-opacity="1"/><path d="M67 122 78 122 78 133 67 133Z" fill="#000000" fill-rule="nonzero" fill-opacity="1"/><path d="M78 122 89 122 89 133 78 133Z" fill="#000000" fill-rule="nonzero" fill-opacity="1"/><path d="M89 122 100 122 100 133 89 133Z" fill="#000000" fill-rule="nonzero" fill-opacity="1"/><path d="M100 122 111 122 111 133 100 133Z" fill="#000000" fill-rule="nonzero" fill-opacity="1"/><path d="M111 122 122 122 122 133 111 133Z" fill="#000000" fill-rule="nonzero" fill-opacity="1"/><path d="M122 122 133 122 133 133 122 133Z" fill="#000000" fill-rule="nonzero" fill-opacity="1"/><path d="M133 122 144 122 144 133 133 133Z" fill="#000000" fill-rule="nonzero" fill-opacity="1"/><path d="M155 122 166 122 166 133 155 133Z" fill="#000000" fill-rule="nonzero" fill-opacity="1"/><path d="M210 122 221 122 221 133 210 133Z" fill="#000000" fill-rule="nonzero" fill-opacity="1"/><path d="M221 122 232 122 232 133 221 133Z" fill="#000000" fill-rule="nonzero" fill-opacity="1"/><path d="M34 133 45 133 45 144 34 144Z" fill="#000000" fill-rule="nonzero" fill-opacity="1"/><path d="M45 133 56 133 56 144 45 144Z" fill="#000000" fill-rule="nonzero" fill-opacity="1"/><path d="M56 133 67 133 67 144 56 144Z" fill="#000000" fill-rule="nonzero" fill-opacity="1"/><path d="M111 133 122 133 122 144 111 144Z" fill="#000000" fill-rule="nonzero" fill-opacity="1"/><path d="M122 133 133 133 133 144 122 144Z" fill="#000000" fill-rule="nonzero" fill-opacity="1"/><path d="M133 133 144 133 144 144 133 144Z" fill="#000000" fill-rule="nonzero" fill-opacity="1"/><path d="M144 133 155 133 155 144 144 144Z" fill="#000000" fill-rule="nonzero" fill-opacity="1"/><path d="M155 133 166 133 166 144 155 144Z" fill="#000000" fill-rule="nonzero" fill-opacity="1"/><path d="M177 133 188 133 188 144 177 144Z" fill="#000000" fill-rule="nonzero" fill-opacity="1"/><path d="M199 133 210 133 210 144 199 144Z" fill="#000000" fill-rule="nonzero" fill-opacity="1"/><path d="M210 133 221 133 221 144 210 144Z" fill="#000000" fill-rule="nonzero" fill-opacity="1"/><path d="M221 133 232 133 232 144 221 144Z" fill="#000000" fill-rule="nonzero" fill-opacity="1"/><path d="M243 133 254 133 254 144 243 144Z" fill="#000000" fill-rule="nonzero" fill-opacity="1"/><path d="M254 133 265 133 265 144 254 144Z" fill="#000000" fill-rule="nonzero" fill-opacity="1"/><path d="M23 144 34 144 34 155 23 155Z" fill="#000000" fill-rule="nonzero" fill-opacity="1"/><path d="M34 144 45 144 45 155 34 155Z" fill="#000000" fill-rule="nonzero" fill-opacity="1"/><path d="M67 144 78 144 78 155 67 155Z" fill="#000000" fill-rule="nonzero" fill-opacity="1"/><path d="M78 144 89 144 89 155 78 155Z" fill="#000000" fill-rule="nonzero" fill-opacity="1"/><path d="M89 144 100 144 100 155 89 155Z" fill="#000000" fill-rule="nonzero" fill-opacity="1"/><path d="M111 144 122 144 122 155 111 155Z" fill="#000000" fill-rule="nonzero" fill-opacity="1"/><path d="M122 144 133 144 133 155 122 155Z" fill="#000000" fill-rule="nonzero" fill-opacity="1"/><path d="M133 144 144 144 144 155 133 155Z" fill="#000000" fill-rule="nonzero" fill-opacity="1"/><path d="M144 144 155 144 155 155 144 155Z" fill="#000000" fill-rule="nonzero" fill-opacity="1"/><path d="M155 144 166 144 166 155 155 155Z" fill="#000000" fill-rule="nonzero" fill-opacity="1"/><path d="M166 144 177 144 177 155 166 155Z" fill="#000000" fill-rule="nonzero" fill-opacity="1"/><path d="M177 144 188 144 188 155 177 155Z" fill="#000000" fill-rule="nonzero" fill-opacity="1"/><path d="M188 144 199 144 199 155 188 155Z" fill="#000000" fill-rule="nonzero" fill-opacity="1"/><path d="M210 144 221 144 221 155 210 155Z" fill="#000000" fill-rule="nonzero" fill-opacity="1"/><path d="M232 144 243 144 243 155 232 155Z" fill="#000000" fill-rule="nonzero" fill-opacity="1"/><path d="M254 144 265 144 265 155 254 155Z" fill="#000000" fill-rule="nonzero" fill-opacity="1"/><path d="M265 144 276 144 276 155 265 155Z" fill="#000000" fill-rule="nonzero" fill-opacity="1"/><path d="M276 144 287 144 287 155 276 155Z" fill="#000000" fill-rule="nonzero" fill-opacity="1"/><path d="M45 155 56 155 56 166 45 166Z" fill="#000000" fill-rule="nonzero" fill-opacity="1"/><path d="M67 155 78 155 78 166 67 166Z" fill="#000000" fill-rule="nonzero" fill-opacity="1"/><path d="M89 155 100 155 100 166 89 166Z" fill="#000000" fill-rule="nonzero" fill-opacity="1"/><path d="M111 155 122 155 122 166 111 166Z" fill="#000000" fill-rule="nonzero" fill-opacity="1"/><path d="M144 155 155 155 155 166 144 166Z" fill="#000000" fill-rule="nonzero" fill-opacity="1"/><path d="M166 155 177 155 177 166 166 166Z" fill="#000000" fill-rule="nonzero" fill-opacity="1"/><path d="M177 155 188 155 188 166 177 166Z" fill="#000000" fill-rule="nonzero" fill-opacity="1"/><path d="M188 155 199 155 199 166 188 166Z" fill="#000000" fill-rule="nonzero" fill-opacity="1"/><path d="M199 155 210 155 210 166 199 166Z" fill="#000000" fill-rule="nonzero" fill-opacity="1"/><path d="M210 155 221 155 221 166 210 166Z" fill="#000000" fill-rule="nonzero" fill-opacity="1"/><path d="M221 155 232 155 232 166 221 166Z" fill="#000000" fill-rule="nonzero" fill-opacity="1"/><path d="M232 155 243 155 243 166 232 166Z" fill="#000000" fill-rule="nonzero" fill-opacity="1"/><path d="M276 155 287 155 287 166 276 166Z" fill="#000000" fill-rule="nonzero" fill-opacity="1"/><path d="M23 166 34 166 34 177 23 177Z" fill="#000000" fill-rule="nonzero" fill-opacity="1"/><path d="M34 166 45 166 45 177 34 177Z" fill="#000000" fill-rule="nonzero" fill-opacity="1"/><path d="M45 166 56 166 56 177 45 177Z" fill="#000000" fill-rule="nonzero" fill-opacity="1"/><path d="M56 166 67 166 67 177 56 177Z" fill="#000000" fill-rule="nonzero" fill-opacity="1"/><path d="M78 166 89 166 89 177 78 177Z" fill="#000000" fill-rule="nonzero" fill-opacity="1"/><path d="M100 166 111 166 111 177 100 177Z" fill="#000000" fill-rule="nonzero" fill-opacity="1"/><path d="M122 166 133 166 133 177 122 177Z" fill="#000000" fill-rule="nonzero" fill-opacity="1"/><path d="M144 166 155 166 155 177 144 177Z" fill="#000000" fill-rule="nonzero" fill-opacity="1"/><path d="M166 166 177 166 177 177 166 177Z" fill="#000000" fill-rule="nonzero" fill-opacity="1"/><path d="M188 166 199 166 199 177 188 177Z" fill="#000000" fill-rule="nonzero" fill-opacity="1"/><path d="M199 166 210 166 210 177 199 177Z" fill="#000000" fill-rule="nonzero" fill-opacity="1"/><path d="M210 166 221 166 221 177 210 177Z" fill="#000000" fill-rule="nonzero" fill-opacity="1"/><path d="M254 166 265 166 265 177 254 177Z" fill="#000000" fill-rule="nonzero" fill-opacity="1"/><path d="M265 166 276 166 276 177 265 177Z" fill="#000000" fill-rule="nonzero" fill-opacity="1"/><path d="M12 177 23 177 23 188 12 188Z" fill="#000000" fill-rule="nonzero" fill-opacity="1"/><path d="M34 177 45 177 45 188 34 188Z" fill="#000000" fill-rule="nonzero" fill-opacity="1"/><path d="M45 177 56 177 56 188 45 188Z" fill="#000000" fill-rule="nonzero" fill-opacity="1"/><path d="M89 177 100 177 100 188 89 188Z" fill="#000000" fill-rule="nonzero" fill-opacity="1"/><path d="M144 177 155 177 155 188 144 188Z" fill="#000000" fill-rule="nonzero" fill-opacity="1"/><path d="M166 177 177 177 177 188 166 188Z" fill="#000000" fill-rule="nonzero" fill-opacity="1"/><path d="M177 177 188 177 188 188 177 188Z" fill="#000000" fill-rule="nonzero" fill-opacity="1"/><path d="M188 177 199 177 199 188 188 188Z" fill="#000000" fill-rule="nonzero" fill-opacity="1"/><path d="M221 177 232 177 232 188 221 188Z" fill="#000000" fill-rule="nonzero" fill-opacity="1"/><path d="M243 177 254 177 254 188 243 188Z" fill="#000000" fill-rule="nonzero" fill-opacity="1"/><path d="M276 177 287 177 287 188 276 188Z" fill="#000000" fill-rule="nonzero" fill-opacity="1"/><path d="M34 188 45 188 45 199 34 199Z" fill="#000000" fill-rule="nonzero" fill-opacity="1"/><path d="M45 188 56 188 56 199 45 199Z" fill="#000000" fill-rule="nonzero" fill-opacity="1"/><path d="M67 188 78 188 78 199 67 199Z" fill="#000000" fill-rule="nonzero" fill-opacity="1"/><path d="M78 188 89 188 89 199 78 199Z" fill="#000000" fill-rule="nonzero" fill-opacity="1"/><path d="M100 188 111 188 111 199 100 199Z" fill="#000000" fill-rule="nonzero" fill-opacity="1"/><path d="M122 188 133 188 133 199 122 199Z" fill="#000000" fill-rule="nonzero" fill-opacity="1"/><path d="M155 188 166 188 166 199 155 199Z" fill="#000000" fill-rule="nonzero" fill-opacity="1"/><path d="M166 188 177 188 177 199 166 199Z" fill="#000000" fill-rule="nonzero" fill-opacity="1"/><path d="M177 188 188 188 188 199 177 199Z" fill="#000000" fill-rule="nonzero" fill-opacity="1"/><path d="M188 188 199 188 199 199 188 199Z" fill="#000000" fill-rule="nonzero" fill-opacity="1"/><path d="M199 188 210 188 210 199 199 199Z" fill="#000000" fill-rule="nonzero" fill-opacity="1"/><path d="M210 188 221 188 221 199 210 199Z" fill="#000000" fill-rule="nonzero" fill-opacity="1"/><path d="M221 188 232 188 232 199 221 199Z" fill="#000000" fill-rule="nonzero" fill-opacity="1"/><path d="M232 188 243 188 243 199 232 199Z" fill="#000000" fill-rule="nonzero" fill-opacity="1"/><path d="M243 188 254 188 254 199 243 199Z" fill="#000000" fill-rule="nonzero" fill-opacity="1"/><path d="M254 188 265 188 265 199 254 199Z" fill="#000000" fill-rule="nonzero" fill-opacity="1"/><path d="M265 188 276 188 276 199 265 199Z" fill="#000000" fill-rule="nonzero" fill-opacity="1"/><path d="M276 188 287 188 287 199 276 199Z" fill="#000000" fill-rule="nonzero" fill-opacity="1"/><path d="M100 199 111 199 111 210 100 210Z" fill="#000000" fill-rule="nonzero" fill-opacity="1"/><path d="M111 199 122 199 122 210 111 210Z" fill="#000000" fill-rule="nonzero" fill-opacity="1"/><path d="M122 199 133 199 133 210 122 210Z" fill="#000000" fill-rule="nonzero" fill-opacity="1"/><path d="M133 199 144 199 144 210 133 210Z" fill="#000000" fill-rule="nonzero" fill-opacity="1"/><path d="M144 199 155 199 155 210 144 210Z" fill="#000000" fill-rule="nonzero" fill-opacity="1"/><path d="M188 199 199 199 199 210 188 210Z" fill="#000000" fill-rule="nonzero" fill-opacity="1"/><path d="M232 199 243 199 243 210 232 210Z" fill="#000000" fill-rule="nonzero" fill-opacity="1"/><path d="M276 199 287 199 287 210 276 210Z" fill="#000000" fill-rule="nonzero" fill-opacity="1"/><path d="M12 210 23 210 23 221 12 221Z" fill="#000000" fill-rule="nonzero" fill-opacity="1"/><path d="M23 210 34 210 34 221 23 221Z" fill="#000000" fill-rule="nonzero" fill-opacity="1"/><path d="M34 210 45 210 45 221 34 221Z" fill="#000000" fill-rule="nonzero" fill-opacity="1"/><path d="M45 210 56 210 56 221 45 221Z" fill="#000000" fill-rule="nonzero" fill-opacity="1"/><path d="M56 210 67 210 67 221 56 221Z" fill="#000000" fill-rule="nonzero" fill-opacity="1"/><path d="M67 210 78 210 78 221 67 221Z" fill="#000000" fill-rule="nonzero" fill-opacity="1"/><path d="M78 210 89 210 89 221 78 221Z" fill="#000000" fill-rule="nonzero" fill-opacity="1"/><path d="M144 210 155 210 155 221 144 221Z" fill="#000000" fill-rule="nonzero" fill-opacity="1"/><path d="M155 210 166 210 166 221 155 221Z" fill="#000000" fill-rule="nonzero" fill-opacity="1"/><path d="M166 210 177 210 177 221 166 221Z" fill="#000000" fill-rule="nonzero" fill-opacity="1"/><path d="M188 210 199 210 199 221 188 221Z" fill="#000000" fill-rule="nonzero" fill-opacity="1"/><path d="M210 210 221 210 221 221 210 221Z" fill="#000000" fill-rule="nonzero" fill-opacity="1"/><path d="M232 210 243 210 243 221 232 221Z" fill="#000000" fill-rule="nonzero" fill-opacity="1"/><path d="M243 210 254 210 254 221 243 221Z" fill="#000000" fill-rule="nonzero" fill-opacity="1"/><path d="M254 210 265 210 265 221 254 221Z" fill="#000000" fill-rule="nonzero" fill-opacity="1"/><path d="M265 210 276 210 276 221 265 221Z" fill="#000000" fill-rule="nonzero" fill-opacity="1"/><path d="M276 210 287 210 287 221 276 221Z" fill="#000000" fill-rule="nonzero" fill-opacity="1"/><path d="M12 221 23 221 23 232 12 232Z" fill="#000000" fill-rule="nonzero" fill-opacity="1"/><path d="M78 221 89 221 89 232 78 232Z" fill="#000000" fill-rule="nonzero" fill-opacity="1"/><path d="M133 221 144 221 144 232 133 232Z" fill="#000000" fill-rule="nonzero" fill-opacity="1"/><path d="M144 221 155 221 155 232 144 232Z" fill="#000000" fill-rule="nonzero" fill-opacity="1"/><path d="M166 221 177 221 177 232 166 232Z" fill="#000000" fill-rule="nonzero" fill-opacity="1"/><path d="M177 221 188 221 188 232 177 232Z" fill="#000000" fill-rule="nonzero" fill-opacity="1"/><path d="M188 221 199 221 199 232 188 232Z" fill="#000000" fill-rule="nonzero" fill-opacity="1"/><path d="M232 221 243 221 243 232 232 232Z" fill="#000000" fill-rule="nonzero" fill-opacity="1"/><path d="M12 232 23 232 23 243 12 243Z" fill="#000000" fill-rule="nonzero" fill-opacity="1"/><path d="M34 232 45 232 45 243 34 243Z" fill="#000000" fill-rule="nonzero" fill-opacity="1"/><path d="M45 232 56 232 56 243 45 243Z" fill="#000000" fill-rule="nonzero" fill-opacity="1"/><path d="M56 232 67 232 67 243 56 243Z" fill="#000000" fill-rule="nonzero" fill-opacity="1"/><path d="M78 232 89 232 89 243 78 243Z" fill="#000000" fill-rule="nonzero" fill-opacity="1"/><path d="M111 232 122 232 122 243 111 243Z" fill="#000000" fill-rule="nonzero" fill-opacity="1"/><path d="M122 232 133 232 133 243 122 243Z" fill="#000000" fill-rule="nonzero" fill-opacity="1"/><path d="M133 232 144 232 144 243 133 243Z" fill="#000000" fill-rule="nonzero" fill-opacity="1"/><path d="M166 232 177 232 177 243 166 243Z" fill="#000000" fill-rule="nonzero" fill-opacity="1"/><path d="M188 232 199 232 199 243 188 243Z" fill="#000000" fill-rule="nonzero" fill-opacity="1"/><path d="M199 232 210 232 210 243 199 243Z" fill="#000000" fill-rule="nonzero" fill-opacity="1"/><path d="M210 232 221 232 221 243 210 243Z" fill="#000000" fill-rule="nonzero" fill-opacity="1"/><path d="M221 232 232 232 232 243 221 243Z" fill="#000000" fill-rule="nonzero" fill-opacity="1"/><path d="M232 232 243 232 243 243 232 243Z" fill="#000000" fill-rule="nonzero" fill-opacity="1"/><path d="M265 232 276 232 276 243 265 243Z" fill="#000000" fill-rule="nonzero" fill-opacity="1"/><path d="M276 232 287 232 287 243 276 243Z" fill="#000000" fill-rule="nonzero" fill-opacity="1"/><path d="M12 243 23 243 23 254 12 254Z" fill="#000000" fill-rule="nonzero" fill-opacity="1"/><path d="M34 243 45 243 45 254 34 254Z" fill="#000000" fill-rule="nonzero" fill-opacity="1"/><path d="M45 243 56 243 56 254 45 254Z" fill="#000000" fill-rule="nonzero" fill-opacity="1"/><path d="M56 243 67 243 67 254 56 254Z" fill="#000000" fill-rule="nonzero" fill-opacity="1"/><path d="M78 243 89 243 89 254 78 254Z" fill="#000000" fill-rule="nonzero" fill-opacity="1"/><path d="M100 243 111 243 111 254 100 254Z" fill="#000000" fill-rule="nonzero" fill-opacity="1"/><path d="M111 243 122 243 122 254 111 254Z" fill="#000000" fill-rule="nonzero" fill-opacity="1"/><path d="M133 243 144 243 144 254 133 254Z" fill="#000000" fill-rule="nonzero" fill-opacity="1"/><path d="M155 243 166 243 166 254 155 254Z" fill="#000000" fill-rule="nonzero" fill-opacity="1"/><path d="M199 243 210 243 210 254 199 254Z" fill="#000000" fill-rule="nonzero" fill-opacity="1"/><path d="M210 243 221 243 221 254 210 254Z" fill="#000000" fill-rule="nonzero" fill-opacity="1"/><path d="M232 243 243 243 243 254 232 254Z" fill="#000000" fill-rule="nonzero" fill-opacity="1"/><path d="M254 243 265 243 265 254 254 254Z" fill="#000000" fill-rule="nonzero" fill-opacity="1"/><path d="M265 243 276 243 276 254 265 254Z" fill="#000000" fill-rule="nonzero" fill-opacity="1"/><path d="M276 243 287 243 287 254 276 254Z" fill="#000000" fill-rule="nonzero" fill-opacity="1"/><path d="M12 254 23 254 23 265 12 265Z" fill="#000000" fill-rule="nonzero" fill-opacity="1"/><path d="M34 254 45 254 45 265 34 265Z" fill="#000000" fill-rule="nonzero" fill-opacity="1"/><path d="M45 254 56 254 56 265 45 265Z" fill="#000000" fill-rule="nonzero" fill-opacity="1"/><path d="M56 254 67 254 67 265 56 265Z" fill="#000000" fill-rule="nonzero" fill-opacity="1"/><path d="M78 254 89 254 89 265 78 265Z" fill="#000000" fill-rule="nonzero" fill-opacity="1"/><path d="M100 254 111 254 111 265 100 265Z" fill="#000000" fill-rule="nonzero" fill-opacity="1"/><path d="M133 254 144 254 144 265 133 265Z" fill="#000000" fill-rule="nonzero" fill-opacity="1"/><path d="M155 254 166 254 166 265 155 265Z" fill="#000000" fill-rule="nonzero" fill-opacity="1"/><path d="M188 254 199 254 199 265 188 265Z" fill="#000000" fill-rule="nonzero" fill-opacity="1"/><path d="M210 254 221 254 221 265 210 265Z" fill="#000000" fill-rule="nonzero" fill-opacity="1"/><path d="M221 254 232 254 232 265 221 265Z" fill="#000000" fill-rule="nonzero" fill-opacity="1"/><path d="M232 254 243 254 243 265 232 265Z" fill="#000000" fill-rule="nonzero" fill-opacity="1"/><path d="M243 254 254 254 254 265 243 265Z" fill="#000000" fill-rule="nonzero" fill-opacity="1"/><path d="M254 254 265 254 265 265 254 265Z" fill="#000000" fill-rule="nonzero" fill-opacity="1"/><path d="M265 254 276 254 276 265 265 265Z" fill="#000000" fill-rule="nonzero" fill-opacity="1"/><path d="M12 265 23 265 23 276 12 276Z" fill="#000000" fill-rule="nonzero" fill-opacity="1"/><path d="M78 265 89 265 89 276 78 276Z" fill="#000000" fill-rule="nonzero" fill-opacity="1"/><path d="M100 265 111 265 111 276 100 276Z" fill="#000000" fill-rule="nonzero" fill-opacity="1"/><path d="M133 265 144 265 144 276 133 276Z" fill="#000000" fill-rule="nonzero" fill-opacity="1"/><path d="M144 265 155 265 155 276 144 276Z" fill="#000000" fill-rule="nonzero" fill-opacity="1"/><path d="M155 265 166 265 166 276 155 276Z" fill="#000000" fill-rule="nonzero" fill-opacity="1"/><path d="M166 265 177 265 177 276 166 276Z" fill="#000000" fill-rule="nonzero" fill-opacity="1"/><path d="M177 265 188 265 188 276 177 276Z" fill="#000000" fill-rule="nonzero" fill-opacity="1"/><path d="M232 265 243 265 243 276 232 276Z" fill="#000000" fill-rule="nonzero" fill-opacity="1"/><path d="M254 265 265 265 265 276 254 276Z" fill="#000000" fill-rule="nonzero" fill-opacity="1"/><path d="M12 276 23 276 23 287 12 287Z" fill="#000000" fill-rule="nonzero" fill-opacity="1"/><path d="M23 276 34 276 34 287 23 287Z" fill="#000000" fill-rule="nonzero" fill-opacity="1"/><path d="M34 276 45 276 45 287 34 287Z" fill="#000000" fill-rule="nonzero" fill-opacity="1"/><path d="M45 276 56 276 56 287 45 287Z" fill="#000000" fill-rule="nonzero" fill-opacity="1"/><path d="M56 276 67 276 67 287 56 287Z" fill="#000000" fill-rule="nonzero" fill-opacity="1"/><path d="M67 276 78 276 78 287 67 287Z" fill="#000000" fill-rule="nonzero" fill-opacity="1"/><path d="M78 276 89 276 89 287 78 287Z" fill="#000000" fill-rule="nonzero" fill-opacity="1"/><path d="M100 276 111 276 111 287 100 287Z" fill="#000000" fill-rule="nonzero" fill-opacity="1"/><path d="M111 276 122 276 122 287 111 287Z" fill="#000000" fill-rule="nonzero" fill-opacity="1"/><path d="M133 276 144 276 144 287 133 287Z" fill="#000000" fill-rule="nonzero" fill-opacity="1"/><path d="M144 276 155 276 155 287 144 287Z" fill="#000000" fill-rule="nonzero" fill-opacity="1"/><path d="M155 276 166 276 166 287 155 287Z" fill="#000000" fill-rule="nonzero" fill-opacity="1"/><path d="M166 276 177 276 177 287 166 287Z" fill="#000000" fill-rule="nonzero" fill-opacity="1"/><path d="M199 276 210 276 210 287 199 287Z" fill="#000000" fill-rule="nonzero" fill-opacity="1"/><path d="M221 276 232 276 232 287 221 287Z" fill="#000000" fill-rule="nonzero" fill-opacity="1"/><path d="M232 276 243 276 243 287 232 287Z" fill="#000000" fill-rule="nonzero" fill-opacity="1"/><path d="M243 276 254 276 254 287 243 287Z" fill="#000000" fill-rule="nonzero" fill-opacity="1"/><path d="M254 276 265 276 265 287 254 287Z" fill="#000000" fill-rule="nonzero" fill-opacity="1"/><path d="M265 276 276 276 276 287 265 287Z" fill="#000000" fill-rule="nonzero" fill-opacity="1"/><path d="M276 276 287 276 287 287 276 287Z" fill="#000000" fill-rule="nonzero" fill-opacity="1"/></g></svg>