<svg id="SvgjsSvg1006" width="398" height="1235" xmlns="http://www.w3.org/2000/svg" version="1.1" xmlns:xlink="http://www.w3.org/1999/xlink" xmlns:svgjs="http://svgjs.com/svgjs"><defs id="SvgjsDefs1007"><marker id="SvgjsMarker1034" markerWidth="14" markerHeight="10" refX="10" refY="5" viewBox="0 0 14 10" orient="auto" markerUnits="userSpaceOnUse" stroke-dasharray="0,0"><path id="SvgjsPath1035" d="M0,0 L14,5 L0,10 L0,0" fill="#323232" stroke="#323232" stroke-width="1"></path></marker><marker id="SvgjsMarker1042" markerWidth="14" markerHeight="10" refX="10" refY="5" viewBox="0 0 14 10" orient="auto" markerUnits="userSpaceOnUse" stroke-dasharray="0,0"><path id="SvgjsPath1043" d="M0,0 L14,5 L0,10 L0,0" fill="#323232" stroke="#323232" stroke-width="1"></path></marker><marker id="SvgjsMarker1058" markerWidth="14" markerHeight="10" refX="10" refY="5" viewBox="0 0 14 10" orient="auto" markerUnits="userSpaceOnUse" stroke-dasharray="0,0"><path id="SvgjsPath1059" d="M0,0 L14,5 L0,10 L0,0" fill="#323232" stroke="#323232" stroke-width="1"></path></marker><marker id="SvgjsMarker1070" markerWidth="14" markerHeight="10" refX="10" refY="5" viewBox="0 0 14 10" orient="auto" markerUnits="userSpaceOnUse" stroke-dasharray="0,0"><path id="SvgjsPath1071" d="M0,0 L14,5 L0,10 L0,0" fill="#323232" stroke="#323232" stroke-width="1"></path></marker><marker id="SvgjsMarker1074" markerWidth="14" markerHeight="10" refX="10" refY="5" viewBox="0 0 14 10" orient="auto" markerUnits="userSpaceOnUse" stroke-dasharray="0,0"><path id="SvgjsPath1075" d="M0,0 L14,5 L0,10 L0,0" fill="#323232" stroke="#323232" stroke-width="1"></path></marker><marker id="SvgjsMarker1091" markerWidth="14" markerHeight="10" refX="10" refY="5" viewBox="0 0 14 10" orient="auto" markerUnits="userSpaceOnUse" stroke-dasharray="0,0"><path id="SvgjsPath1092" d="M0,0 L14,5 L0,10 L0,0" fill="#323232" stroke="#323232" stroke-width="1"></path></marker><marker id="SvgjsMarker1107" markerWidth="14" markerHeight="10" refX="10" refY="5" viewBox="0 0 14 10" orient="auto" markerUnits="userSpaceOnUse" stroke-dasharray="0,0"><path id="SvgjsPath1108" d="M0,0 L14,5 L0,10 L0,0" fill="#323232" stroke="#323232" stroke-width="1"></path></marker><marker id="SvgjsMarker1121" markerWidth="14" markerHeight="10" refX="10" refY="5" viewBox="0 0 14 10" orient="auto" markerUnits="userSpaceOnUse" stroke-dasharray="0,0"><path id="SvgjsPath1122" d="M0,0 L14,5 L0,10 L0,0" fill="#323232" stroke="#323232" stroke-width="1"></path></marker><marker id="SvgjsMarker1135" markerWidth="14" markerHeight="10" refX="10" refY="5" viewBox="0 0 14 10" orient="auto" markerUnits="userSpaceOnUse" stroke-dasharray="0,0"><path id="SvgjsPath1136" d="M0,0 L14,5 L0,10 L0,0" fill="#323232" stroke="#323232" stroke-width="1"></path></marker><marker id="SvgjsMarker1147" markerWidth="14" markerHeight="10" refX="10" refY="5" viewBox="0 0 14 10" orient="auto" markerUnits="userSpaceOnUse" stroke-dasharray="0,0"><path id="SvgjsPath1148" d="M0,0 L14,5 L0,10 L0,0" fill="#323232" stroke="#323232" stroke-width="1"></path></marker><marker id="SvgjsMarker1165" markerWidth="14" markerHeight="10" refX="10" refY="5" viewBox="0 0 14 10" orient="auto" markerUnits="userSpaceOnUse" stroke-dasharray="0,0"><path id="SvgjsPath1166" d="M0,0 L14,5 L0,10 L0,0" fill="#323232" stroke="#323232" stroke-width="1"></path></marker><marker id="SvgjsMarker1169" markerWidth="14" markerHeight="10" refX="10" refY="5" viewBox="0 0 14 10" orient="auto" markerUnits="userSpaceOnUse" stroke-dasharray="0,0"><path id="SvgjsPath1170" d="M0,0 L14,5 L0,10 L0,0" fill="#323232" stroke="#323232" stroke-width="1"></path></marker><marker id="SvgjsMarker1179" markerWidth="14" markerHeight="10" refX="10" refY="5" viewBox="0 0 14 10" orient="auto" markerUnits="userSpaceOnUse" stroke-dasharray="0,0"><path id="SvgjsPath1180" d="M0,0 L14,5 L0,10 L0,0" fill="#323232" stroke="#323232" stroke-width="1"></path></marker><marker id="SvgjsMarker1199" markerWidth="14" markerHeight="10" refX="10" refY="5" viewBox="0 0 14 10" orient="auto" markerUnits="userSpaceOnUse" stroke-dasharray="0,0"><path id="SvgjsPath1200" d="M0,0 L14,5 L0,10 L0,0" fill="#323232" stroke="#323232" stroke-width="1"></path></marker><marker id="SvgjsMarker1203" markerWidth="14" markerHeight="10" refX="10" refY="5" viewBox="0 0 14 10" orient="auto" markerUnits="userSpaceOnUse" stroke-dasharray="0,0"><path id="SvgjsPath1204" d="M0,0 L14,5 L0,10 L0,0" fill="#323232" stroke="#323232" stroke-width="1"></path></marker><marker id="SvgjsMarker1211" markerWidth="14" markerHeight="10" refX="10" refY="5" viewBox="0 0 14 10" orient="auto" markerUnits="userSpaceOnUse" stroke-dasharray="0,0"><path id="SvgjsPath1212" d="M0,0 L14,5 L0,10 L0,0" fill="#323232" stroke="#323232" stroke-width="1"></path></marker><marker id="SvgjsMarker1227" markerWidth="14" markerHeight="10" refX="10" refY="5" viewBox="0 0 14 10" orient="auto" markerUnits="userSpaceOnUse" stroke-dasharray="0,0"><path id="SvgjsPath1228" d="M0,0 L14,5 L0,10 L0,0" fill="#323232" stroke="#323232" stroke-width="1"></path></marker></defs><g id="SvgjsG1008" transform="translate(112,230)"><path id="SvgjsPath1009" d="M 0 4Q 0 0 4 0L 100 0Q 104 0 104 4L 104 41Q 104 45 100 45L 4 45Q 0 45 0 41Z" stroke="rgba(50,50,50,1)" stroke-width="2" fill-opacity="1" fill="#ffffff"></path><g id="SvgjsG1010"><text id="SvgjsText1011" font-family="微软雅黑" text-anchor="middle" font-size="13px" width="84px" fill="#323232" font-weight="400" align="middle" lineHeight="125%" anchor="middle" family="微软雅黑" size="13px" weight="400" font-style="" opacity="1" y="4.875" transform="rotate(0)"><tspan id="SvgjsTspan1012" dy="16" x="52"><tspan id="SvgjsTspan1013" style="text-decoration:;">数据输入</tspan></tspan><tspan id="SvgjsTspan1014" dy="16" x="52"><tspan id="SvgjsTspan1015" style="text-decoration:;">x11-x54</tspan></tspan></text></g></g><g id="SvgjsG1016" transform="translate(104,105)"><path id="SvgjsPath1017" d="M 0 40L 60 0L 120 40L 60 80Z" stroke="rgba(50,50,50,1)" stroke-width="2" fill-opacity="1" fill="#ffffff"></path><g id="SvgjsG1018"><text id="SvgjsText1019" font-family="微软雅黑" text-anchor="middle" font-size="13px" width="100px" fill="#323232" font-weight="400" align="middle" lineHeight="125%" anchor="middle" family="微软雅黑" size="13px" weight="400" font-style="" opacity="1" y="22.775" transform="rotate(0)"><tspan id="SvgjsTspan1020" dy="16" x="60"><tspan id="SvgjsTspan1021" style="text-decoration:;">请求是否为</tspan></tspan><tspan id="SvgjsTspan1022" dy="16" x="60"><tspan id="SvgjsTspan1023" style="text-decoration:;">POST？</tspan></tspan></text></g></g><g id="SvgjsG1024" transform="translate(303,110)"><path id="SvgjsPath1025" d="M 0 35C 0 -11.666666666666666 70 -11.666666666666666 70 35C 70 81.66666666666667 0 81.66666666666667 0 35Z" stroke="rgba(50,50,50,1)" stroke-width="2" fill-opacity="1" fill="#ffffff"></path><g id="SvgjsG1026"><text id="SvgjsText1027" font-family="微软雅黑" text-anchor="middle" font-size="13px" width="50px" fill="#323232" font-weight="400" align="middle" lineHeight="125%" anchor="middle" family="微软雅黑" size="13px" weight="400" font-style="" opacity="1" y="17.375" transform="rotate(0)"><tspan id="SvgjsTspan1028" dy="16" x="35"><tspan id="SvgjsTspan1029" style="text-decoration:;">重定向</tspan></tspan><tspan id="SvgjsTspan1030" dy="16" x="35"><tspan id="SvgjsTspan1031" style="text-decoration:;">到首页</tspan></tspan></text></g></g><g id="SvgjsG1032"><path id="SvgjsPath1033" d="M225 145L263.5 145L263.5 145L299.4 145" stroke="#323232" stroke-width="2" fill="none" marker-end="url(#SvgjsMarker1034)"></path><rect id="SvgjsRect1036" width="9" height="16" x="243.14999999999998" y="137" fill="#ffffff"></rect><text id="SvgjsText1037" font-family="微软雅黑" text-anchor="middle" font-size="13px" width="9px" fill="#323232" font-weight="400" align="top" lineHeight="16px" anchor="middle" family="微软雅黑" size="13px" weight="400" font-style="" opacity="1" y="135.375" transform="rotate(0)"><tspan id="SvgjsTspan1038" dy="16" x="247.64999999999998"><tspan id="SvgjsTspan1039" style="text-decoration:;">N</tspan></tspan></text></g><g id="SvgjsG1040"><path id="SvgjsPath1041" d="M164 186L164 207.5L164 207.5L164 226.4" stroke="#323232" stroke-width="2" fill="none" marker-end="url(#SvgjsMarker1042)"></path><rect id="SvgjsRect1044" width="9" height="16" x="159.5" y="198.20000000000002" fill="#ffffff"></rect><text id="SvgjsText1045" font-family="微软雅黑" text-anchor="middle" font-size="13px" width="9px" fill="#323232" font-weight="400" align="top" lineHeight="16px" anchor="middle" family="微软雅黑" size="13px" weight="400" font-style="" opacity="1" y="196.57500000000002" transform="rotate(0)"><tspan id="SvgjsTspan1046" dy="16" x="164"><tspan id="SvgjsTspan1047" style="text-decoration:;">Y</tspan></tspan></text></g><g id="SvgjsG1048" transform="translate(136,25)"><path id="SvgjsPath1049" d="M 0 28C 0 -9.333333333333334 56 -9.333333333333334 56 28C 56 65.33333333333333 0 65.33333333333333 0 28Z" stroke="rgba(50,50,50,1)" stroke-width="2" fill-opacity="1" fill="#ffffff"></path><g id="SvgjsG1050"><text id="SvgjsText1051" font-family="微软雅黑" text-anchor="middle" font-size="13px" width="36px" fill="#323232" font-weight="400" align="middle" lineHeight="125%" anchor="middle" family="微软雅黑" size="13px" weight="400" font-style="" opacity="1" y="10.375" transform="rotate(0)"><tspan id="SvgjsTspan1052" dy="16" x="28"><tspan id="SvgjsTspan1053" style="text-decoration:;">接收</tspan></tspan><tspan id="SvgjsTspan1054" dy="16" x="28"><tspan id="SvgjsTspan1055" style="text-decoration:;">请求</tspan></tspan></text></g></g><g id="SvgjsG1056"><path id="SvgjsPath1057" d="M164 82L164 93L164 93L164 101.4" stroke="#323232" stroke-width="2" fill="none" marker-end="url(#SvgjsMarker1058)"></path></g><g id="SvgjsG1060" transform="translate(104,307)"><path id="SvgjsPath1061" d="M 0 40L 60 0L 120 40L 60 80Z" stroke="rgba(50,50,50,1)" stroke-width="2" fill-opacity="1" fill="#ffffff"></path><g id="SvgjsG1062"><text id="SvgjsText1063" font-family="微软雅黑" text-anchor="middle" font-size="13px" width="100px" fill="#323232" font-weight="400" align="middle" lineHeight="125%" anchor="middle" family="微软雅黑" size="13px" weight="400" font-style="" opacity="1" y="22.775" transform="rotate(0)"><tspan id="SvgjsTspan1064" dy="16" x="60"><tspan id="SvgjsTspan1065" style="text-decoration:;">数据输入</tspan></tspan><tspan id="SvgjsTspan1066" dy="16" x="60"><tspan id="SvgjsTspan1067" style="text-decoration:;">是否合法？</tspan></tspan></text></g></g><g id="SvgjsG1068"><path id="SvgjsPath1069" d="M164 276L164 291L164 291L164 303.4" stroke="#323232" stroke-width="2" fill="none" marker-end="url(#SvgjsMarker1070)"></path></g><g id="SvgjsG1072"><path id="SvgjsPath1073" d="M225 347L338 347L338 183.6" stroke="#323232" stroke-width="2" fill="none" marker-end="url(#SvgjsMarker1074)"></path><rect id="SvgjsRect1076" width="9" height="16" x="272.5" y="339" fill="#ffffff"></rect><text id="SvgjsText1077" font-family="微软雅黑" text-anchor="middle" font-size="13px" width="9px" fill="#323232" font-weight="400" align="top" lineHeight="16px" anchor="middle" family="微软雅黑" size="13px" weight="400" font-style="" opacity="1" y="337.375" transform="rotate(0)"><tspan id="SvgjsTspan1078" dy="16" x="277"><tspan id="SvgjsTspan1079" style="text-decoration:;">N</tspan></tspan></text></g><g id="SvgjsG1080" transform="translate(104,437)"><path id="SvgjsPath1081" d="M 0 40L 60 0L 120 40L 60 80Z" stroke="rgba(50,50,50,1)" stroke-width="2" fill-opacity="1" fill="#ffffff"></path><g id="SvgjsG1082"><text id="SvgjsText1083" font-family="微软雅黑" text-anchor="middle" font-size="12px" width="100px" fill="#323232" font-weight="400" align="middle" lineHeight="125%" anchor="middle" family="微软雅黑" size="12px" weight="400" font-style="" opacity="1" y="23.9" transform="rotate(0)"><tspan id="SvgjsTspan1084" dy="15" x="60"><tspan id="SvgjsTspan1085" style="text-decoration:;">数据输入</tspan><tspan id="SvgjsTspan1086" style="text-decoration:;font-size: inherit;">是否</tspan></tspan><tspan id="SvgjsTspan1087" dy="15" x="60"><tspan id="SvgjsTspan1088" style="text-decoration:;font-size: inherit;">在指定范围内？</tspan></tspan></text></g></g><g id="SvgjsG1089"><path id="SvgjsPath1090" d="M164 388L164 412L164 412L164 433.4" stroke="#323232" stroke-width="2" fill="none" marker-end="url(#SvgjsMarker1091)"></path><rect id="SvgjsRect1093" width="9" height="16" x="159.5" y="399" fill="#ffffff"></rect><text id="SvgjsText1094" font-family="微软雅黑" text-anchor="middle" font-size="13px" width="9px" fill="#323232" font-weight="400" align="top" lineHeight="16px" anchor="middle" family="微软雅黑" size="13px" weight="400" font-style="" opacity="1" y="397.375" transform="rotate(0)"><tspan id="SvgjsTspan1095" dy="16" x="164"><tspan id="SvgjsTspan1096" style="text-decoration:;">Y</tspan></tspan></text></g><g id="SvgjsG1097" transform="translate(303,442)"><path id="SvgjsPath1098" d="M 0 35C 0 -11.666666666666666 70 -11.666666666666666 70 35C 70 81.66666666666667 0 81.66666666666667 0 35Z" stroke="rgba(50,50,50,1)" stroke-width="2" fill-opacity="1" fill="#ffffff"></path><g id="SvgjsG1099"><text id="SvgjsText1100" font-family="微软雅黑" text-anchor="middle" font-size="13px" width="50px" fill="#323232" font-weight="400" align="middle" lineHeight="125%" anchor="middle" family="微软雅黑" size="13px" weight="400" font-style="" opacity="1" y="17.375" transform="rotate(0)"><tspan id="SvgjsTspan1101" dy="16" x="35"><tspan id="SvgjsTspan1102" style="text-decoration:;">返回错</tspan></tspan><tspan id="SvgjsTspan1103" dy="16" x="35"><tspan id="SvgjsTspan1104" style="text-decoration:;">误信息</tspan></tspan></text></g></g><g id="SvgjsG1105"><path id="SvgjsPath1106" d="M225 477L263.5 477L263.5 477L299.4 477" stroke="#323232" stroke-width="2" fill="none" marker-end="url(#SvgjsMarker1107)"></path><rect id="SvgjsRect1109" width="9" height="16" x="243.14999999999998" y="469" fill="#ffffff"></rect><text id="SvgjsText1110" font-family="微软雅黑" text-anchor="middle" font-size="13px" width="9px" fill="#323232" font-weight="400" align="top" lineHeight="16px" anchor="middle" family="微软雅黑" size="13px" weight="400" font-style="" opacity="1" y="467.375" transform="rotate(0)"><tspan id="SvgjsTspan1111" dy="16" x="247.64999999999998"><tspan id="SvgjsTspan1112" style="text-decoration:;">N</tspan></tspan></text></g><g id="SvgjsG1113" transform="translate(25,567)"><path id="SvgjsPath1114" d="M 0 0L 278 0L 278 31L 0 31Z" stroke="rgba(50,50,50,1)" stroke-width="2" fill-opacity="1" fill="#ffffff"></path><g id="SvgjsG1115"><text id="SvgjsText1116" font-family="微软雅黑" text-anchor="middle" font-size="13px" width="258px" fill="#323232" font-weight="400" align="middle" lineHeight="125%" anchor="middle" family="微软雅黑" size="13px" weight="400" font-style="" opacity="1" y="5.875" transform="rotate(0)"><tspan id="SvgjsTspan1117" dy="16" x="139"><tspan id="SvgjsTspan1118" style="text-decoration:;">将输入的字符串转换为浮点型/整型数据</tspan></tspan></text></g></g><g id="SvgjsG1119"><path id="SvgjsPath1120" d="M164 518L164 542L164 542L164 563.4" stroke="#323232" stroke-width="2" fill="none" marker-end="url(#SvgjsMarker1121)"></path><rect id="SvgjsRect1123" width="9" height="16" x="159.5" y="529" fill="#ffffff"></rect><text id="SvgjsText1124" font-family="微软雅黑" text-anchor="middle" font-size="13px" width="9px" fill="#323232" font-weight="400" align="top" lineHeight="16px" anchor="middle" family="微软雅黑" size="13px" weight="400" font-style="" opacity="1" y="527.375" transform="rotate(0)"><tspan id="SvgjsTspan1125" dy="16" x="164"><tspan id="SvgjsTspan1126" style="text-decoration:;">Y</tspan></tspan></text></g><g id="SvgjsG1127" transform="translate(36.75,630)"><path id="SvgjsPath1128" d="M 6.51 0L 247.99 0L 254.5 15.5L 247.99 31L 6.51 31L 0 15.5L 6.51 0Z" stroke="rgba(50,50,50,1)" stroke-width="2" fill-opacity="1" fill="#ffffff"></path><g id="SvgjsG1129"><text id="SvgjsText1130" font-family="微软雅黑" text-anchor="middle" font-size="13px" width="235px" fill="#323232" font-weight="400" align="middle" lineHeight="125%" anchor="middle" family="微软雅黑" size="13px" weight="400" font-style="" opacity="1" y="5.875" transform="rotate(0)"><tspan id="SvgjsTspan1131" dy="16" x="127.5"><tspan id="SvgjsTspan1132" style="text-decoration:;">加载模型 BPNNmodel.h5</tspan></tspan></text></g></g><g id="SvgjsG1133"><path id="SvgjsPath1134" d="M164 599L164 614L164 614L164 626.4" stroke="#323232" stroke-width="2" fill="none" marker-end="url(#SvgjsMarker1135)"></path></g><g id="SvgjsG1137" transform="translate(36.75,693)"><path id="SvgjsPath1138" d="M 7.77 0L 246.73 0L 254.5 18.5L 246.73 37L 7.77 37L 0 18.5L 7.77 0Z" stroke="rgba(50,50,50,1)" stroke-width="2" fill-opacity="1" fill="#ffffff"></path><g id="SvgjsG1139"><text id="SvgjsText1140" font-family="微软雅黑" text-anchor="middle" font-size="13px" width="235px" fill="#323232" font-weight="400" align="middle" lineHeight="125%" anchor="middle" family="微软雅黑" size="13px" weight="400" font-style="" opacity="1" y="0.875" transform="rotate(0)"><tspan id="SvgjsTspan1141" dy="16" x="127.5"><tspan id="SvgjsTspan1142" style="text-decoration:;">加载因子得分 </tspan></tspan><tspan id="SvgjsTspan1143" dy="16" x="127.5"><tspan id="SvgjsTspan1144" style="text-decoration:;">ComponentScoreCoefficient.csv</tspan></tspan></text></g></g><g id="SvgjsG1145"><path id="SvgjsPath1146" d="M164 662L164 677L164 677L164 689.4" stroke="#323232" stroke-width="2" fill="none" marker-end="url(#SvgjsMarker1147)"></path></g><g id="SvgjsG1149" transform="translate(36.75,825)"><path id="SvgjsPath1150" d="M 7.77 0L 246.73 0L 254.5 18.5L 246.73 37L 7.77 37L 0 18.5L 7.77 0Z" stroke="rgba(50,50,50,1)" stroke-width="2" fill-opacity="1" fill="#ffffff"></path><g id="SvgjsG1151"><text id="SvgjsText1152" font-family="微软雅黑" text-anchor="middle" font-size="13px" width="235px" fill="#323232" font-weight="400" align="middle" lineHeight="125%" anchor="middle" family="微软雅黑" size="13px" weight="400" font-style="" opacity="1" y="0.875" transform="rotate(0)"><tspan id="SvgjsTspan1153" dy="16" x="127.5"><tspan id="SvgjsTspan1154" style="text-decoration:;">加载Z-Score均值和标准差</tspan></tspan><tspan id="SvgjsTspan1155" dy="16" x="127.5"><tspan id="SvgjsTspan1156" style="text-decoration:;">ZscoreMeanandStd.csv</tspan></tspan></text></g></g><g id="SvgjsG1157" transform="translate(25,762)"><path id="SvgjsPath1158" d="M 0 0L 278 0L 278 31L 0 31Z" stroke="rgba(50,50,50,1)" stroke-width="2" fill-opacity="1" fill="#ffffff"></path><g id="SvgjsG1159"><text id="SvgjsText1160" font-family="微软雅黑" text-anchor="middle" font-size="13px" width="258px" fill="#323232" font-weight="400" align="middle" lineHeight="125%" anchor="middle" family="微软雅黑" size="13px" weight="400" font-style="" opacity="1" y="5.875" transform="rotate(0)"><tspan id="SvgjsTspan1161" dy="16" x="139"><tspan id="SvgjsTspan1162" style="text-decoration:;">将输入的数据乘因子得分，得到各因子的值</tspan></tspan></text></g></g><g id="SvgjsG1163"><path id="SvgjsPath1164" d="M164 731L164 746L164 746L164 758.4" stroke="#323232" stroke-width="2" fill="none" marker-end="url(#SvgjsMarker1165)"></path></g><g id="SvgjsG1167"><path id="SvgjsPath1168" d="M164 794L164 809L164 809L164 821.4" stroke="#323232" stroke-width="2" fill="none" marker-end="url(#SvgjsMarker1169)"></path></g><g id="SvgjsG1171" transform="translate(25,894)"><path id="SvgjsPath1172" d="M 0 0L 278 0L 278 31L 0 31Z" stroke="rgba(50,50,50,1)" stroke-width="2" fill-opacity="1" fill="#ffffff"></path><g id="SvgjsG1173"><text id="SvgjsText1174" font-family="微软雅黑" text-anchor="middle" font-size="13px" width="258px" fill="#323232" font-weight="400" align="middle" lineHeight="125%" anchor="middle" family="微软雅黑" size="13px" weight="400" font-style="" opacity="1" y="5.875" transform="rotate(0)"><tspan id="SvgjsTspan1175" dy="16" x="139"><tspan id="SvgjsTspan1176" style="text-decoration:;">对因子进行Z-Score标准化</tspan></tspan></text></g></g><g id="SvgjsG1177"><path id="SvgjsPath1178" d="M164 863L164 878L164 878L164 890.4" stroke="#323232" stroke-width="2" fill="none" marker-end="url(#SvgjsMarker1179)"></path></g><g id="SvgjsG1181" transform="translate(68.5,1084)"><path id="SvgjsPath1182" d="M 0 4Q 0 0 4 0L 187 0Q 191 0 191 4L 191 49Q 191 53 187 53L 4 53Q 0 53 0 49Z" stroke="rgba(50,50,50,1)" stroke-width="2" fill-opacity="1" fill="#ffffff"></path><g id="SvgjsG1183"><text id="SvgjsText1184" font-family="微软雅黑" text-anchor="middle" font-size="13px" width="171px" fill="#323232" font-weight="400" align="middle" lineHeight="125%" anchor="middle" family="微软雅黑" size="13px" weight="400" font-style="" opacity="1" y="8.875" transform="rotate(0)"><tspan id="SvgjsTspan1185" dy="16" x="95.5"><tspan id="SvgjsTspan1186" style="text-decoration:;">使用模型预测企业的财务状况</tspan></tspan><tspan id="SvgjsTspan1187" dy="16" x="95.5"><tspan id="SvgjsTspan1188" style="text-decoration:;">良好的概率，并输出</tspan></tspan></text></g></g><g id="SvgjsG1189" transform="translate(104,957)"><path id="SvgjsPath1190" d="M 0 40L 60 0L 120 40L 60 80Z" stroke="rgba(50,50,50,1)" stroke-width="2" fill-opacity="1" fill="#ffffff"></path><g id="SvgjsG1191"><text id="SvgjsText1192" font-family="微软雅黑" text-anchor="middle" font-size="12px" width="100px" fill="#323232" font-weight="400" align="middle" lineHeight="125%" anchor="middle" family="微软雅黑" size="12px" weight="400" font-style="" opacity="1" y="23.9" transform="rotate(0)"><tspan id="SvgjsTspan1193" dy="15" x="60"><tspan id="SvgjsTspan1194" style="text-decoration:;">上述过程</tspan></tspan><tspan id="SvgjsTspan1195" dy="15" x="60"><tspan id="SvgjsTspan1196" style="text-decoration:;">是否执行成功？</tspan></tspan></text></g></g><g id="SvgjsG1197"><path id="SvgjsPath1198" d="M164 926L164 941L164 941L164 953.4" stroke="#323232" stroke-width="2" fill="none" marker-end="url(#SvgjsMarker1199)"></path></g><g id="SvgjsG1201"><path id="SvgjsPath1202" d="M225 997L338 997L338 515.6" stroke="#323232" stroke-width="2" fill="none" marker-end="url(#SvgjsMarker1203)"></path><rect id="SvgjsRect1205" width="9" height="16" x="276.5" y="989" fill="#ffffff"></rect><text id="SvgjsText1206" font-family="微软雅黑" text-anchor="middle" font-size="13px" width="9px" fill="#323232" font-weight="400" align="top" lineHeight="16px" anchor="middle" family="微软雅黑" size="13px" weight="400" font-style="" opacity="1" y="987.375" transform="rotate(0)"><tspan id="SvgjsTspan1207" dy="16" x="281"><tspan id="SvgjsTspan1208" style="text-decoration:;">N</tspan></tspan></text></g><g id="SvgjsG1209"><path id="SvgjsPath1210" d="M164 1038L164 1060.5L164 1060.5L164 1080.4" stroke="#323232" stroke-width="2" fill="none" marker-end="url(#SvgjsMarker1211)"></path><rect id="SvgjsRect1213" width="9" height="16" x="159.5" y="1045" fill="#ffffff"></rect><text id="SvgjsText1214" font-family="微软雅黑" text-anchor="middle" font-size="13px" width="9px" fill="#323232" font-weight="400" align="top" lineHeight="16px" anchor="middle" family="微软雅黑" size="13px" weight="400" font-style="" opacity="1" y="1043.375" transform="rotate(0)"><tspan id="SvgjsTspan1215" dy="16" x="164"><tspan id="SvgjsTspan1216" style="text-decoration:;">Y</tspan></tspan></text></g><g id="SvgjsG1217" transform="translate(69.5,1168)"><path id="SvgjsPath1218" d="M 0 21C 0 -7 189 -7 189 21C 189 49 0 49 0 21Z" stroke="rgba(50,50,50,1)" stroke-width="2" fill-opacity="1" fill="#ffffff"></path><g id="SvgjsG1219"><text id="SvgjsText1220" font-family="微软雅黑" text-anchor="middle" font-size="13px" width="169px" fill="#323232" font-weight="400" align="middle" lineHeight="125%" anchor="middle" family="微软雅黑" size="13px" weight="400" font-style="" opacity="1" y="3.375" transform="rotate(0)"><tspan id="SvgjsTspan1221" dy="16" x="94.5"><tspan id="SvgjsTspan1222" style="text-decoration:;">携带结果数据</tspan></tspan><tspan id="SvgjsTspan1223" dy="16" x="94.5"><tspan id="SvgjsTspan1224" style="text-decoration:;">GET重定向到首页</tspan></tspan></text></g></g><g id="SvgjsG1225"><path id="SvgjsPath1226" d="M164 1138L164 1152.5L164 1152.5L164 1164.4" stroke="#323232" stroke-width="2" fill="none" marker-end="url(#SvgjsMarker1227)"></path></g></svg>